<svg width="22" height="22" viewBox="0 0 22 22" fill="none" xmlns="http://www.w3.org/2000/svg">
<path d="M11.2734 0.9375C5.47451 0.9375 0.773438 5.63857 0.773438 11.4375C0.773438 17.2364 5.47451 21.9375 11.2734 21.9375C17.0724 21.9375 21.7734 17.2364 21.7734 11.4375C21.7669 5.64131 17.0696 0.943994 11.2734 0.9375ZM19.405 5.97405L18.6773 9.06731L14.8435 10.3451L11.6234 7.76951V3.97437L15.2984 2.50447C16.9623 3.2583 18.3838 4.45937 19.405 5.97405ZM19.4634 16.8083L15.9925 17.3564L14.1025 14.8597L15.0653 11.0097L18.8565 9.74629L21.0283 12.3523C20.8803 13.9436 20.3428 15.474 19.4634 16.8083ZM6.5698 17.3588L3.08347 16.8083C2.20403 15.4736 1.66672 13.9429 1.5189 12.3513L3.68896 9.74526L7.48018 11.0087L8.44302 14.8608L6.5698 17.3588ZM1.47651 11.3069C1.49514 9.74561 1.88906 8.21145 2.62495 6.83435L3.19268 9.24932L1.47651 11.3069ZM9.0967 14.5875L8.16821 10.8698L11.2734 8.38577L14.3793 10.8708L13.4502 14.5875H9.0967ZM19.3542 9.24795L19.9219 6.83298C20.6578 8.21008 21.0517 9.74407 21.0704 11.3056L19.3542 9.24795ZM14.344 2.13276L11.2734 3.36084L8.1865 2.1384C10.1846 1.47241 12.3446 1.47053 14.344 2.13276ZM7.23169 2.5125L10.9234 3.97556V7.76951L7.70337 10.3451L3.8696 9.06731L3.14192 5.97405C4.15962 4.46484 5.575 3.26685 7.23169 2.5125ZM3.66829 17.6093L6.5134 18.0588L8.23401 20.7539C6.44197 20.1653 4.85706 19.0738 3.66829 17.6093ZM9.23752 21.0234L7.14897 17.7536L8.99844 15.2875H13.5484L15.4244 17.7655L13.6045 20.955C12.1729 21.3076 10.6801 21.3315 9.23787 21.0251L9.23752 21.0234ZM14.5767 20.6631L16.0685 18.0525L18.88 17.609C17.7505 18.9999 16.2625 20.0559 14.5767 20.6631Z" fill="#B27E02"/>
</svg>
