<svg width="19" height="19" viewBox="0 0 19 19" fill="none" xmlns="http://www.w3.org/2000/svg">
<g clip-path="url(#clip0_1_3250)">
<path d="M10.9913 9.6008L18.071 2.52186C18.5105 2.08239 18.5105 1.36987 18.071 0.930433C17.6315 0.490963 16.919 0.490963 16.4796 0.930433L9.40061 8.01012L2.32166 0.930433C1.88219 0.490963 1.16967 0.490963 0.730237 0.930433C0.290802 1.3699 0.290767 2.08242 0.730237 2.52186L7.80992 9.6008L0.730237 16.6798C0.290767 17.1193 0.290767 17.8318 0.730237 18.2712C1.16971 18.7106 1.88223 18.7107 2.32166 18.2712L9.40061 11.1915L16.4796 18.2712C16.919 18.7107 17.6315 18.7107 18.071 18.2712C18.5104 17.8317 18.5104 17.1192 18.071 16.6798L10.9913 9.6008Z" fill="black"/>
</g>
<defs>
<clipPath id="clip0_1_3250">
<rect width="18" height="18" fill="white" transform="translate(0.400391 0.600586)"/>
</clipPath>
</defs>
</svg>
