<svg width="22" height="22" viewBox="0 0 22 22" fill="none" xmlns="http://www.w3.org/2000/svg">
<g clip-path="url(#clip0_465_427)">
<path d="M21.1494 17.4734C20.7402 17.219 20.7379 17.9398 20.6501 18.1487C20.0738 19.5184 18.4844 20.608 16.9985 20.608C15.2156 20.608 13.7249 19.3339 13.3885 17.6486C13.3888 17.6421 13.3895 17.6357 13.3895 17.6292C13.3895 17.4485 13.3658 17.2733 13.3217 17.1063C13.3188 17.0468 13.3172 16.987 13.3172 16.9268C13.3172 15.3871 14.2676 14.0653 15.6124 13.5168L16.6036 17.0379C16.6546 17.2188 16.8191 17.3371 16.9983 17.3371C17.035 17.3371 17.0725 17.3321 17.1096 17.3216C17.3277 17.2602 17.4547 17.0337 17.3933 16.8156L16.402 13.2942C16.5962 13.2624 16.7954 13.2456 16.9985 13.2456C18.4632 13.2456 19.7882 14.1132 20.3742 15.456C20.4648 15.6636 20.5336 18.6713 21.1494 17.4734C21.8018 17.4734 21.2166 15.3355 21.126 15.1278C20.4096 13.4861 18.7894 12.4253 16.9985 12.4253C16.7185 12.4253 16.4445 12.4512 16.1785 12.5004L16.1433 12.3755C16.0247 11.954 15.9361 11.5251 15.8777 11.0922L15.8777 11.0917C15.8439 10.8411 15.82 10.5892 15.8067 10.3364C15.844 10.5245 16.0099 10.6663 16.209 10.6663H16.7694C17.5452 10.6663 18.1765 10.0351 18.1765 9.25926C18.1765 8.48341 17.5452 7.85218 16.7694 7.85218H15.539L12.3934 5.06476C12.5566 5.11213 12.7289 5.13805 12.9071 5.13805C13.9248 5.13805 14.7528 4.31007 14.7528 3.29235C14.7528 2.27464 13.9248 1.44666 12.9071 1.44666C11.8894 1.44666 11.0614 2.27464 11.0614 3.29235C11.0614 3.63914 11.1577 3.96374 11.3247 4.24121C11.0312 4.10754 10.7102 4.03666 10.378 4.03666C9.76742 4.03666 9.19341 4.27447 8.76164 4.7062L5.4032 8.0646C5.4023 8.0655 5.4016 8.06657 5.4007 8.06747C5.38991 8.07846 5.37966 8.09015 5.37002 8.10249C5.36891 8.10393 5.36768 8.10524 5.36662 8.10668L5.36539 8.1082C5.15215 8.39182 5.03037 8.73155 5.00457 9.09798H4.19849C3.97197 9.09798 3.78834 9.28165 3.78834 9.50814V10.01C3.78834 10.8641 4.48314 11.5589 5.33721 11.5589H5.82349L5.61316 12.4671C5.41305 12.4398 5.20891 12.4254 5.00146 12.4254C2.51936 12.4252 0.5 14.4446 0.5 16.9267C0.5 18.4464 1.25702 19.7924 2.41366 20.6079H0.910156C0.683627 20.6079 0.5 20.7916 0.5 21.0181C0.5 21.2446 0.683627 21.4282 0.910156 21.4282H5.0015C7.227 21.4282 9.08016 19.8047 9.43967 17.68C9.46473 17.8824 9.63707 18.0393 9.84634 18.0393H12.6362C12.905 19.0926 13.5461 19.9984 14.4106 20.6079H11.8066C11.5801 20.6079 11.3965 20.7916 11.3965 21.0181C11.3965 21.2446 11.5801 21.4282 11.8066 21.4282H16.9985C18.8154 21.4282 20.4447 20.3461 21.1494 18.6713C21.2372 18.4625 21.7315 16.196 21.1494 17.4734ZM15.7936 8.67245H16.7694C17.0929 8.67241 17.3561 8.9356 17.3561 9.25917C17.3561 9.5827 17.0929 9.84594 16.7694 9.84594H16.209C15.9967 9.84594 15.8222 10.0071 15.801 10.2137C15.7961 10.09 15.7936 9.96632 15.7936 9.84241V8.67245ZM15.013 10.7385H10.9023C10.8366 10.6601 10.7676 10.584 10.6947 10.511L9.40201 9.21828L11.105 7.51527L14.9851 10.3258C14.9916 10.4636 15.0009 10.6012 15.013 10.7385ZM14.4078 11.5588L11.8945 13.8355L11.655 12.3474C11.6545 12.3445 11.6541 12.3417 11.6535 12.3388C11.604 12.0677 11.523 11.8065 11.4135 11.5588H14.4078ZM12.9071 2.26688C13.4725 2.26688 13.9325 2.72687 13.9325 3.29227C13.9325 3.85767 13.4725 4.31766 12.9071 4.31766C12.3417 4.31766 11.8817 3.85767 11.8817 3.29227C11.8817 2.72687 12.3417 2.26688 12.9071 2.26688ZM9.34168 5.2862C9.61849 5.00935 9.98653 4.85689 10.378 4.85689C10.7695 4.85689 11.1375 5.00935 11.4144 5.28624L14.9733 8.44686V9.30441L11.303 6.64579C11.2307 6.59349 11.1464 6.56782 11.0625 6.56782C10.9568 6.56782 10.8517 6.6085 10.7723 6.68795L8.7009 8.75944L7.33208 8.38152L6.4813 8.14663L9.34168 5.2862ZM5.33721 10.7385C4.9355 10.7385 4.60865 10.4117 4.60865 10.01V9.91821H5.10096C5.19214 10.2205 5.34065 10.5004 5.53265 10.7385H5.33721ZM5.0015 20.6079C2.97168 20.6079 1.32031 18.9566 1.32031 16.9267C1.32031 14.8969 2.97168 13.2456 5.0015 13.2456C5.14546 13.2456 5.28746 13.2541 5.4272 13.2703L4.60192 16.8343C4.57371 16.9561 4.60262 17.0841 4.68043 17.182C4.75823 17.2799 4.87644 17.3369 5.0015 17.3369H8.65972C8.45509 19.1744 6.89268 20.6079 5.0015 20.6079ZM5.51747 16.5166L6.22634 13.4554C7.53199 13.9174 8.50152 15.0962 8.65972 16.5166H5.51747ZM6.41243 12.652L6.66423 11.5645L8.63006 12.6996L9.2756 15.5137C8.82874 14.1656 7.76082 13.0981 6.41243 12.652ZM9.38963 12.3421C9.36416 12.231 9.29365 12.1356 9.19497 12.0786L6.5397 10.5453C6.20092 10.3497 5.93653 9.96403 5.84978 9.53878C5.79765 9.28329 5.81315 9.04134 5.89227 8.83499L7.08673 9.16476L8.60849 9.58488L10.1147 11.0911C10.4954 11.4718 10.7482 11.9527 10.8458 12.4821L11.3442 15.5785C11.3423 15.5785 11.3406 15.5784 11.3387 15.5784H10.1321L9.38963 12.3421ZM10.2565 17.219V16.3987H11.3387C11.8734 16.3987 12.3296 16.7415 12.4989 17.219H10.2565ZM12.5915 16.0072C12.4726 15.9152 12.3436 15.8359 12.2061 15.7714L12.05 14.8014L15.1949 11.9526C15.2409 12.1691 15.2937 12.3843 15.3537 12.5977L15.389 12.723C13.9773 13.2653 12.9059 14.4989 12.5915 16.0072Z" fill="#B27E02"/>
<path d="M10.4832 20.7282C10.4069 20.6515 10.3015 20.608 10.1932 20.608C10.0854 20.608 9.97955 20.6515 9.90326 20.7282C9.82697 20.8045 9.78308 20.9099 9.78308 21.0182C9.78308 21.1261 9.82697 21.2319 9.90326 21.3082C9.97955 21.3844 10.0854 21.4283 10.1932 21.4283C10.3011 21.4283 10.4069 21.3845 10.4832 21.3082C10.5599 21.2319 10.6034 21.1261 10.6034 21.0182C10.6034 20.9099 10.5599 20.8045 10.4832 20.7282Z" fill="#B27E02"/>
</g>
<defs>
<clipPath id="clip0_465_427">
<rect width="21" height="21" fill="white" transform="translate(0.5 0.9375)"/>
</clipPath>
</defs>
</svg>
