<svg width="22" height="22" viewBox="0 0 22 22" fill="none" xmlns="http://www.w3.org/2000/svg">
<path d="M15.9812 7.41755V10.5295H11.2867V7.41755C11.279 7.08769 11.4505 6.7795 11.735 6.61211C12.0193 6.44502 12.3723 6.44502 12.6567 6.61211C12.9412 6.7795 13.1127 7.08769 13.1048 7.41755V7.94179C13.1048 8.17128 13.291 8.35715 13.5203 8.35715C13.7499 8.35715 13.9358 8.17128 13.9358 7.94179V7.41755C13.9466 6.78888 13.6173 6.20311 13.0746 5.88582C12.5319 5.56824 11.86 5.56824 11.317 5.88582C10.7743 6.20311 10.445 6.78888 10.4558 7.41755V15.7431C10.4558 15.9726 10.6417 16.1585 10.8713 16.1585C11.1007 16.1585 11.2867 15.9726 11.2867 15.7431V13.9454H15.9812V15.7431C15.9812 15.9726 16.1674 16.1585 16.3967 16.1585C16.6261 16.1585 16.8121 15.9726 16.8121 15.7431V7.41755C16.8037 7.08726 16.975 6.77834 17.2599 6.61067C17.5446 6.44299 17.8978 6.44299 18.1825 6.61067C18.4674 6.77834 18.6387 7.08726 18.6302 7.41755V7.94179C18.6302 8.17128 18.8163 8.35715 19.0457 8.35715C19.2752 8.35715 19.4612 8.17128 19.4612 7.94179V7.41755C19.4729 6.78831 19.1438 6.20167 18.6007 5.88365C18.0576 5.56564 17.385 5.56564 16.8417 5.88365C16.2987 6.20167 15.9695 6.78831 15.9812 7.41755ZM11.287 13.1145V11.3604H15.9814V13.1145H11.287Z" fill="#B27E02"/>
<path d="M17.6328 17.5898C17.303 17.5898 17.1588 17.4737 16.9409 17.2981C16.6778 17.0862 16.3505 16.8226 15.7278 16.8226C15.1049 16.8226 14.7776 17.0862 14.5148 17.2981C14.2967 17.4737 14.1527 17.5898 13.823 17.5898C13.4934 17.5898 13.3491 17.4737 13.1312 17.2981C12.8681 17.0862 12.5408 16.8226 11.9182 16.8226C11.2953 16.8226 10.9681 17.0862 10.7052 17.2981C10.4872 17.4737 10.3432 17.5897 10.0136 17.5897C9.68375 17.5897 9.5399 17.4737 9.32183 17.2981C9.05855 17.0862 8.73143 16.8226 8.10884 16.8226C7.87935 16.8226 7.69348 17.0086 7.69348 17.238C7.69348 17.4673 7.87935 17.6535 8.10884 17.6535C8.43855 17.6535 8.58254 17.7696 8.80061 17.9452C9.0636 18.1571 9.39072 18.4205 10.0136 18.4205C10.6362 18.4205 10.9635 18.1569 11.2264 17.9452C11.4445 17.7696 11.5887 17.6535 11.9182 17.6535C12.2478 17.6535 12.3919 17.7696 12.6099 17.9452C12.873 18.1571 13.2002 18.4205 13.823 18.4205C14.4457 18.4205 14.773 18.1569 15.036 17.9452C15.2541 17.7696 15.398 17.6535 15.7278 17.6535C16.0573 17.6535 16.2016 17.7696 16.4195 17.9452C16.6827 18.1571 17.0099 18.4205 17.6328 18.4205C18.2556 18.4205 18.5828 18.1569 18.8457 17.9452C19.0639 17.7696 19.208 17.6535 19.5377 17.6535C19.7671 17.6535 19.9532 17.4673 19.9532 17.238C19.9532 17.0086 19.7671 16.8226 19.5377 16.8226C18.915 16.8226 18.5876 17.0862 18.3246 17.2981C18.1064 17.4737 17.9624 17.5898 17.6328 17.5898Z" fill="#B27E02"/>
<path d="M19.5377 19.2021C18.9151 19.2021 18.5877 19.4657 18.3247 19.6776C18.1067 19.8532 17.9625 19.9692 17.633 19.9692C17.3031 19.9692 17.1591 19.8532 16.9409 19.6776C16.6778 19.4657 16.3505 19.2021 15.7279 19.2021C15.1052 19.2021 14.7778 19.4657 14.5149 19.6776C14.297 19.8532 14.1528 19.9692 13.823 19.9692C13.4934 19.9692 13.3494 19.8532 13.1314 19.6776C12.8681 19.4657 12.541 19.2021 11.9184 19.2021C11.2956 19.2021 10.9684 19.4657 10.7054 19.6776C10.4874 19.8532 10.3433 19.9692 10.0136 19.9692C9.68389 19.9692 9.5399 19.8532 9.32183 19.6776C9.05884 19.4657 8.73172 19.2021 8.10884 19.2021C7.8795 19.2021 7.69348 19.3882 7.69348 19.6175C7.69348 19.8468 7.8795 20.033 8.10884 20.033C8.43869 20.033 8.58254 20.1491 8.80061 20.3247C9.06389 20.5366 9.39086 20.8 10.0136 20.8C10.6362 20.8 10.9636 20.5365 11.2267 20.3247C11.4447 20.1491 11.5888 20.033 11.9184 20.033C12.2479 20.033 12.3921 20.1491 12.61 20.3247C12.8731 20.5366 13.2004 20.8 13.823 20.8C14.4459 20.8 14.7731 20.5365 15.0363 20.3247C15.2542 20.1491 15.3983 20.033 15.7279 20.033C16.0573 20.033 16.2016 20.1491 16.4198 20.3247C16.6828 20.5366 17.0101 20.8002 17.633 20.8002C18.2556 20.8002 18.583 20.5365 18.8459 20.3247C19.064 20.1491 19.2082 20.033 19.5377 20.033C19.7674 20.033 19.9532 19.8468 19.9532 19.6175C19.9532 19.3882 19.7674 19.2021 19.5377 19.2021Z" fill="#B27E02"/>
<path d="M7.82211 4.96722C7.82211 3.9219 6.9748 3.07458 5.92948 3.07458C4.88445 3.07458 4.03699 3.9219 4.03699 4.96722C4.03699 6.01254 4.88445 6.85971 5.92948 6.85971C6.97451 6.85856 7.8211 6.01196 7.82211 4.96722ZM5.92948 6.02886C5.34327 6.02886 4.86784 5.55357 4.86784 4.96722C4.86784 4.38073 5.34327 3.90544 5.92948 3.90544C6.51597 3.90544 6.99126 4.38073 6.99126 4.96722C6.99068 5.55314 6.51568 6.02814 5.92948 6.02886Z" fill="#B27E02"/>
<path d="M6.3405 2.12836V1.52829C6.3405 1.29881 6.15434 1.11279 5.925 1.11279C5.69551 1.11279 5.50964 1.29881 5.50964 1.52829V2.12836C5.50964 2.3577 5.69551 2.54372 5.925 2.54372C6.15434 2.54372 6.3405 2.3577 6.3405 2.12836Z" fill="#B27E02"/>
<path d="M5.50964 7.80612V8.40619C5.50964 8.63553 5.69551 8.82155 5.925 8.82155C6.15434 8.82155 6.3405 8.63553 6.3405 8.40619V7.80612C6.3405 7.57678 6.15434 7.39062 5.925 7.39062C5.69551 7.39062 5.50964 7.57678 5.50964 7.80612Z" fill="#B27E02"/>
<path d="M8.32544 4.99033C8.32544 5.21967 8.51131 5.40568 8.74079 5.40568H9.34101C9.57035 5.40568 9.75636 5.21967 9.75636 4.99033C9.75636 4.76084 9.57035 4.57483 9.34101 4.57483H8.74079C8.51131 4.57483 8.32544 4.76084 8.32544 4.99033Z" fill="#B27E02"/>
<path d="M2.46296 5.40568H3.06303C3.29252 5.40568 3.47853 5.21967 3.47853 4.99033C3.47853 4.76084 3.29252 4.57483 3.06303 4.57483H2.46296C2.23348 4.57483 2.04761 4.76084 2.04761 4.99033C2.04761 5.21967 2.23348 5.40568 2.46296 5.40568Z" fill="#B27E02"/>
<path d="M8.04469 7.6926C8.20731 7.85261 8.46842 7.85146 8.62974 7.69028C8.7912 7.52897 8.79207 7.26785 8.63219 7.10524L8.20788 6.68093C8.04527 6.52076 7.78415 6.52192 7.62269 6.68324C7.46137 6.84441 7.46022 7.10567 7.62038 7.26843L8.04469 7.6926Z" fill="#B27E02"/>
<path d="M3.60544 3.25349C3.71014 3.35978 3.86381 3.40195 4.00808 3.36383C4.15236 3.32556 4.26501 3.21291 4.30328 3.06863C4.34155 2.92435 4.29924 2.77069 4.19294 2.66599L3.76863 2.24168C3.60616 2.0818 3.3449 2.08281 3.18344 2.24399C3.02227 2.40545 3.02126 2.66656 3.18113 2.82918L3.60544 3.25349Z" fill="#B27E02"/>
<path d="M3.60545 6.68093L3.18115 7.10524C3.07485 7.2098 3.03283 7.3636 3.07095 7.50788C3.10922 7.65201 3.22187 7.76466 3.36615 7.80279C3.51043 7.84106 3.66409 7.79903 3.76865 7.6926L4.19296 7.26843C4.35298 7.10567 4.35197 6.84441 4.19065 6.68324C4.02933 6.52192 3.76807 6.52076 3.60545 6.68093Z" fill="#B27E02"/>
<path d="M8.04462 2.24168L7.62031 2.66599C7.51387 2.77069 7.47185 2.92435 7.51012 3.06863C7.54839 3.21291 7.66089 3.32556 7.80517 3.36383C7.94945 3.40195 8.10326 3.35978 8.20782 3.25349L8.63213 2.82918C8.792 2.66656 8.79113 2.40545 8.62967 2.24399C8.46835 2.08281 8.20724 2.0818 8.04462 2.24168Z" fill="#B27E02"/>
</svg>
