<svg width="22" height="22" viewBox="0 0 22 22" fill="none" xmlns="http://www.w3.org/2000/svg">
<g clip-path="url(#clip0_465_410)">
<path d="M16.4833 0.947188C16.9345 1.25644 17.182 1.67821 17.289 2.21098C17.3312 2.57255 17.335 2.96516 17.125 3.27739C16.9901 3.41194 16.8597 3.48393 16.6738 3.52348C16.6215 3.69073 16.649 3.80637 16.6946 3.97289C16.7546 4.22166 16.7112 4.40861 16.5918 4.6309C16.4269 4.81588 16.4269 4.81588 16.3047 4.877C16.2793 4.95229 16.2566 5.02855 16.2355 5.10515C16.1365 5.41343 15.9825 5.62727 15.7048 5.79729C15.3758 5.94959 15.0811 5.92057 14.7486 5.79985C14.7206 5.79007 14.6925 5.78029 14.6636 5.77021C14.5953 5.7463 14.5271 5.72186 14.459 5.69731C14.5006 5.90966 14.5669 6.08678 14.6615 6.28178C14.9505 6.89292 15.1135 7.70984 14.9383 8.37358C14.8684 8.69398 15.0104 9.00669 15.1152 9.30668C15.5487 9.30927 15.9821 9.30957 16.4156 9.3072C16.4767 9.30686 16.5377 9.30657 16.5988 9.30633C16.7862 9.30552 16.9735 9.30274 17.1609 9.29899C17.208 9.29876 17.2551 9.29852 17.3037 9.29828C17.596 9.29053 17.8205 9.23328 18.0859 9.10954C18.5029 8.91607 19.0724 8.90215 19.509 9.04265C19.7795 9.16004 19.9575 9.33756 20.0961 9.59636C20.2075 9.8803 20.2113 10.1997 20.1254 10.491C19.9451 10.8919 19.6487 11.0792 19.2509 11.2367C18.8915 11.3566 18.5388 11.3487 18.176 11.2472C17.8315 11.1642 17.5152 11.227 17.1702 11.2852C16.7067 11.3608 16.7067 11.3608 16.5303 11.2549C16.4566 11.1321 16.4476 11.047 16.4429 10.9063C16.4831 10.7785 16.5653 10.735 16.6738 10.6602C16.7922 10.6259 16.7922 10.6259 16.9217 10.6068C16.9691 10.5998 17.0166 10.5927 17.0655 10.5855C17.1393 10.5755 17.1393 10.5755 17.2147 10.5654C17.2632 10.5579 17.3116 10.5505 17.3615 10.5428C17.708 10.4935 18.0196 10.4868 18.358 10.5807C18.6545 10.6587 18.8994 10.6425 19.175 10.504C19.2983 10.4312 19.3799 10.3678 19.4629 10.25C19.5034 10.0722 19.4842 9.95649 19.3885 9.80144C19.2088 9.63197 18.9909 9.66252 18.7566 9.66397C18.4765 9.68538 18.2298 9.78166 17.9786 9.90309C17.8215 9.97015 17.6717 9.98234 17.5023 9.98392C17.4719 9.98467 17.4414 9.98541 17.4101 9.98618C17.3108 9.98843 17.2115 9.98982 17.1122 9.99113C17.043 9.9924 16.9738 9.9937 16.9046 9.99502C16.7263 9.99822 16.548 10.0005 16.3697 10.0026C16.2659 10.0039 16.162 10.0056 16.0582 10.0073C15.8972 10.01 15.7362 10.012 15.5752 10.0133C15.5151 10.0139 15.4549 10.0147 15.3948 10.0156C15.311 10.0168 15.2272 10.0172 15.1434 10.0174C15.0726 10.018 15.0726 10.018 15.0003 10.0186C14.8503 10.0019 14.752 9.95812 14.623 9.8809C14.566 9.80288 14.566 9.80288 14.5307 9.7194C14.5187 9.69196 14.5066 9.66452 14.4942 9.63625C14.4826 9.60871 14.471 9.58116 14.459 9.55278C14.432 9.49792 14.4047 9.44318 14.3769 9.38872C14.1047 9.63313 13.852 9.90231 13.7207 10.25C13.7679 10.4109 13.8901 10.5144 14.0099 10.6264C14.0898 10.7012 14.0898 10.7012 14.1557 10.7773C14.2608 10.8825 14.3462 10.9452 14.4994 10.9497C14.6594 10.9403 14.8162 10.9177 14.9742 10.8919C15.1763 10.8592 15.3927 10.8253 15.5843 10.9089C15.6809 11.0286 15.6868 11.1235 15.6894 11.2754C15.6535 11.3908 15.6535 11.3908 15.5664 11.4805C15.4387 11.5203 15.3285 11.5437 15.1973 11.5625C15.1509 11.5701 15.1046 11.5777 15.0569 11.5855C14.2732 11.7074 14.2732 11.7074 13.9258 11.4805C13.7786 11.3589 13.6411 11.2272 13.5042 11.0942C13.4044 10.9893 13.4044 10.9893 13.3105 10.9473C13.2941 10.9908 13.2941 10.9908 13.2773 11.0351C13.2263 11.1576 13.1673 11.2713 13.1039 11.3877C13.0682 11.4534 13.0682 11.4534 13.0318 11.5203C12.9946 11.5882 12.9946 11.5882 12.9568 11.6574C12.9317 11.7034 12.9066 11.7494 12.8808 11.7969C12.8191 11.9102 12.7572 12.0235 12.6953 12.1368C12.8206 12.2357 12.9503 12.3138 13.0902 12.3905C13.1357 12.4156 13.1812 12.4407 13.2281 12.4665C13.252 12.4796 13.2759 12.4927 13.3006 12.5063C13.4258 12.575 13.5506 12.6443 13.6755 12.7135C13.7004 12.7273 13.7253 12.7411 13.751 12.7554C13.9695 12.8765 14.1879 12.9977 14.4051 13.1211C14.4352 13.1378 14.4653 13.1546 14.4963 13.1718C14.9332 13.4219 15.2281 13.7393 15.3972 14.2183C15.5114 14.6547 15.4712 15.0932 15.2793 15.5C15.1548 15.705 14.998 15.8651 14.8281 16.0332C14.7928 16.069 14.7576 16.1047 14.7212 16.1416C14.6863 16.1769 14.6513 16.2122 14.6153 16.2486C14.5801 16.2843 14.5448 16.3201 14.5085 16.3569C14.4014 16.4593 14.3653 16.4819 14.218 16.4947C14.0725 16.483 14.0214 16.4712 13.9258 16.3614C13.8849 16.2144 13.8634 16.1207 13.9283 15.9797C14.0536 15.8055 14.2118 15.6663 14.3695 15.5215C14.582 15.3178 14.7116 15.1044 14.7679 14.813C14.7636 14.5081 14.6846 14.2763 14.4949 14.0363C14.1733 13.7777 13.7879 13.5931 13.4285 13.3929C13.3814 13.3666 13.3343 13.3403 13.2859 13.3132C13.1711 13.2491 13.0562 13.1851 12.9414 13.1211C12.9236 13.1679 12.9236 13.1679 12.9054 13.2156C12.847 13.3559 12.7654 13.4758 12.6799 13.6005C12.6434 13.6545 12.6068 13.7086 12.5703 13.7626C12.5509 13.7913 12.5315 13.8199 12.5114 13.8494C12.3992 14.0154 12.2885 14.1823 12.1775 14.349C12.1351 14.4127 12.0927 14.4763 12.0503 14.5399C12.0232 14.5804 12.0232 14.5804 11.9957 14.6217C11.9765 14.6504 11.9765 14.6504 11.957 14.6797C12.2238 14.7876 12.2238 14.7876 12.4926 14.8899C12.5248 14.9018 12.557 14.9136 12.5902 14.9258C12.6231 14.9377 12.6561 14.9495 12.69 14.9617C12.7951 15.0172 12.841 15.0695 12.9004 15.1719C12.9004 15.3368 12.8821 15.4276 12.785 15.5616C12.6332 15.633 12.5828 15.6181 12.421 15.5923C12.2707 15.5745 12.1893 15.5683 12.0533 15.6374C11.9459 15.7227 11.8491 15.8133 11.7519 15.9102C11.7006 15.9563 11.7006 15.9563 11.6483 16.0033C11.0435 16.5652 10.681 17.3958 10.3164 18.125C10.5736 18.301 10.8307 18.477 11.0957 18.6582C11.2309 18.5906 11.2907 18.5551 11.3898 18.4527C11.4257 18.4162 11.4257 18.4162 11.4623 18.3789C11.4868 18.3535 11.5113 18.3281 11.5366 18.3019C11.6831 18.1511 11.8294 18.004 11.9897 17.8677C12.1249 17.7515 12.2482 17.6277 12.371 17.4984C12.4073 17.4605 12.4437 17.4226 12.4811 17.3835C12.5373 17.3245 12.5934 17.2656 12.6487 17.2058C12.9579 16.8725 12.9579 16.8725 13.1198 16.8257C13.2536 16.8228 13.3408 16.8469 13.4541 16.9176C13.5435 17.063 13.5465 17.1362 13.5156 17.3047C13.3097 17.6046 13.0089 17.8587 12.7517 18.115C12.6775 18.189 12.6035 18.2632 12.5296 18.3374C12.0898 18.7772 12.0898 18.7772 11.8452 18.9719C11.7789 19.0296 11.7789 19.0296 11.793 19.1504C11.871 19.2285 11.986 19.1968 12.0899 19.1972C12.127 19.1972 12.1642 19.1972 12.2024 19.1971C12.2416 19.1972 12.2807 19.1973 12.321 19.1975C12.4533 19.1978 12.5855 19.1979 12.7177 19.1979C12.8121 19.1981 12.9064 19.1983 13.0008 19.1986C13.2045 19.199 13.4083 19.1994 13.612 19.1996C13.9339 19.2001 14.2557 19.2009 14.5776 19.2018C14.6877 19.2021 14.7977 19.2024 14.9077 19.2027C14.9352 19.2028 14.9627 19.2029 14.9911 19.2029C15.3043 19.2038 15.6176 19.2046 15.9309 19.2053C15.9595 19.2054 15.9882 19.2054 16.0177 19.2055C16.482 19.2066 16.9463 19.2074 17.4107 19.208C17.887 19.2088 18.3633 19.2099 18.8396 19.2115C19.1072 19.2124 19.3748 19.213 19.6424 19.2131C19.894 19.2132 20.1456 19.2139 20.3973 19.2149C20.4898 19.2152 20.5823 19.2153 20.6749 19.2152C20.8008 19.215 20.9268 19.2156 21.0527 19.2164C21.0897 19.2162 21.1267 19.2159 21.1647 19.2157C21.1984 19.2161 21.232 19.2164 21.2667 19.2168C21.2958 19.2169 21.3249 19.2169 21.3549 19.217C21.4551 19.2372 21.492 19.2762 21.5547 19.3555C21.571 19.444 21.571 19.444 21.5701 19.5401C21.5704 19.5718 21.5707 19.6035 21.571 19.6362C21.5506 19.7468 21.5182 19.7777 21.4316 19.8477C21.3076 19.8595 21.1921 19.8638 21.068 19.8625C21.0304 19.8626 20.9928 19.8627 20.954 19.8628C20.8274 19.863 20.7009 19.8623 20.5743 19.8617C20.4837 19.8616 20.3932 19.8617 20.3027 19.8617C20.0564 19.8618 19.8102 19.861 19.5639 19.8602C19.3068 19.8594 19.0496 19.8593 18.7924 19.8592C18.3606 19.8589 17.9288 19.8581 17.497 19.857C17.0522 19.8559 16.6075 19.855 16.1627 19.8545C16.1353 19.8544 16.1079 19.8544 16.0796 19.8544C15.9421 19.8542 15.8046 19.854 15.6671 19.8539C14.5261 19.8526 13.3851 19.8504 12.2441 19.8477C12.2577 19.8883 12.2712 19.9289 12.2851 19.9707C12.3198 20.4709 12.2864 20.8693 11.9471 21.2639C11.7177 21.4561 11.4933 21.4764 11.2042 21.4691C10.9486 21.4319 10.7708 21.3062 10.5625 21.1602C10.5169 21.13 10.4712 21.0999 10.4253 21.07C10.3241 21.0037 10.2235 20.9364 10.1233 20.8684C9.99111 20.779 9.85769 20.6916 9.72375 20.6047C9.68523 20.5796 9.64671 20.5544 9.60702 20.5285C9.53119 20.479 9.45518 20.4297 9.37897 20.3808C9.17811 20.2489 9.01886 20.1279 8.88084 19.9297C8.88084 19.9027 8.88084 19.8756 8.88084 19.8477C7.63561 19.8612 6.39038 19.8748 5.10741 19.8887C5.05327 20.0105 4.99913 20.1323 4.94334 20.2579C4.8037 20.4988 4.6292 20.6834 4.36913 20.7911C4.09516 20.8623 3.83928 20.8474 3.58983 20.709C3.46595 20.6112 3.36446 20.5004 3.2617 20.3809C3.22787 20.3417 3.19403 20.3024 3.15916 20.262C2.89256 19.9446 2.89256 19.9446 2.89256 19.8477C2.86509 19.848 2.83761 19.8482 2.80931 19.8485C2.52389 19.8512 2.23847 19.8531 1.95304 19.8545C1.84645 19.8551 1.73987 19.8559 1.63329 19.857C1.48026 19.8585 1.32726 19.8592 1.17423 19.8597C1.10251 19.8607 1.10251 19.8607 1.02935 19.8616C0.985014 19.8617 0.940681 19.8617 0.895004 19.8617C0.855931 19.8619 0.816858 19.8622 0.776601 19.8625C0.660092 19.8451 0.623953 19.8183 0.554672 19.7247C0.53833 19.6362 0.53833 19.6362 0.539291 19.5401C0.538974 19.5084 0.538657 19.4766 0.53833 19.444C0.558789 19.3332 0.590913 19.3025 0.677719 19.2325C0.754801 19.2161 0.754801 19.2161 0.842292 19.2147C0.87513 19.2139 0.907967 19.2131 0.9418 19.2123C0.977051 19.212 1.0123 19.2117 1.04862 19.2115C1.10298 19.2104 1.10298 19.2104 1.15844 19.2092C1.2742 19.207 1.38995 19.2056 1.50572 19.2043C1.5842 19.2029 1.66268 19.2015 1.74116 19.2C1.93355 19.1965 2.12594 19.1938 2.31834 19.1915C2.29513 19.1633 2.27192 19.1351 2.24801 19.1061C2.21792 19.0691 2.18784 19.0321 2.15685 18.9941C2.11188 18.9391 2.11188 18.9391 2.066 18.883C1.89919 18.6591 1.93167 18.3926 1.9492 18.125C2.06239 17.7655 2.41689 17.5425 2.7032 17.3214C2.88368 17.1815 3.05839 17.0364 3.23094 16.8869C3.42366 16.72 3.61863 16.5573 3.81862 16.3992C3.92692 16.3132 4.03403 16.226 4.14098 16.1384C4.17878 16.1074 4.21658 16.0765 4.25553 16.0446C4.32936 15.9839 4.40296 15.9229 4.47631 15.8617C5.3083 15.1702 6.13865 14.6786 7.19872 14.4319C7.36428 14.3793 7.41872 14.319 7.50054 14.1668C7.51895 14.1264 7.53736 14.0861 7.55633 14.0445C7.57691 13.9997 7.59749 13.9549 7.61869 13.9088C7.7058 13.7155 7.79274 13.5222 7.87951 13.3287C7.92503 13.2301 7.97234 13.1347 8.02448 13.0396C8.20469 12.6926 8.20297 12.3738 8.18538 11.9905C8.17498 11.7434 8.18174 11.5742 8.30663 11.3575C8.43517 11.2932 8.57862 11.2815 8.71678 11.3165C8.8267 11.4058 8.876 11.4757 8.89108 11.6182C8.8911 11.7367 8.88656 11.8544 8.88084 11.9727C8.86793 12.5274 8.96209 12.9487 9.291 13.4082C9.32494 13.4557 9.32494 13.4557 9.35957 13.5041C9.77927 14.0296 10.5053 14.27 11.1367 14.4336C11.1908 14.4336 11.245 14.4336 11.3008 14.4336C11.3724 14.3379 11.4313 14.2471 11.4905 14.144C11.5266 14.0835 11.5628 14.0231 11.5991 13.9628C11.6175 13.9319 11.636 13.901 11.655 13.8691C11.7411 13.7279 11.8334 13.5912 11.9263 13.4544C12.0811 13.2247 12.2284 12.9918 12.3672 12.752C12.3379 12.7409 12.3087 12.7299 12.2786 12.7185C12.0709 12.632 11.8785 12.5163 11.6827 12.4059C11.6177 12.3699 11.6177 12.3699 11.5513 12.3331C11.5099 12.3098 11.4685 12.2865 11.4259 12.2625C11.3692 12.2308 11.3692 12.2308 11.3114 12.1984C11.2187 12.1368 11.2187 12.1368 11.1367 12.0137C11.1195 11.8563 11.1143 11.763 11.1982 11.6266C11.3451 11.5348 11.4639 11.525 11.6289 11.5625C11.786 11.6342 11.9333 11.718 12.0801 11.8086C12.1477 11.6733 12.2154 11.5379 12.2851 11.3985C12.2493 11.3875 12.2135 11.3765 12.1767 11.3652C12.0433 11.318 11.9291 11.2618 11.8059 11.1926C11.7616 11.1678 11.7172 11.143 11.6714 11.1175C11.6244 11.0909 11.5774 11.0644 11.5289 11.037C11.4798 11.0096 11.4307 10.9823 11.3816 10.9549C11.1381 10.8191 10.8962 10.681 10.6562 10.5391C10.6135 10.5141 10.5709 10.4891 10.5269 10.4634C10.4461 10.416 10.3656 10.3679 10.2856 10.3192C10.2493 10.298 10.2131 10.2768 10.1757 10.255C10.1286 10.2267 10.1286 10.2267 10.0806 10.1979C9.98604 10.1579 9.98604 10.1579 9.88013 10.1981C9.76119 10.2618 9.68348 10.3393 9.59093 10.4372C9.38311 10.6555 9.38311 10.6555 9.19359 10.673C9.04491 10.6602 9.04491 10.6602 8.94493 10.5987C8.87302 10.4836 8.85418 10.395 8.85714 10.2595C8.90765 10.0646 9.08203 9.94407 9.22691 9.81425C9.84379 9.22852 10.1342 8.60354 10.3574 7.78911C10.2659 7.79741 10.1745 7.80707 10.0831 7.8173C10.0067 7.82516 10.0067 7.82516 9.92883 7.83317C9.68207 7.8975 9.56173 8.0875 9.42863 8.29491C9.40117 8.33732 9.37371 8.37972 9.34542 8.42341C9.31647 8.46872 9.28751 8.51403 9.25768 8.56071C9.19585 8.65719 9.13389 8.75358 9.07182 8.84991C9.05609 8.87435 9.04037 8.8988 9.02416 8.92399C8.91832 9.08752 8.80814 9.24725 8.69499 9.40586C8.39327 9.832 8.17188 10.18 8.09177 10.6988C8.02397 11.1203 7.76701 11.534 7.4453 11.8086C7.17257 11.9993 6.86633 12.0171 6.54295 11.9727C6.24395 11.8825 6.01347 11.7031 5.84569 11.4395C5.69997 11.0923 5.70972 10.6494 5.83031 10.2936C5.92509 10.0726 6.03938 9.81205 6.24071 9.66946C6.53437 9.45387 6.66211 9.15337 6.81525 8.83337C6.86429 8.7309 6.91425 8.62892 6.96446 8.52701C7.07089 8.3105 7.1761 8.0934 7.28123 7.87626C7.40322 7.62469 7.52572 7.37337 7.64913 7.12249C7.69797 7.02265 7.74608 6.92248 7.79414 6.82227C8.21635 5.95343 8.21635 5.95343 8.67577 5.77934C8.87598 5.7156 9.07832 5.66251 9.28187 5.61079C9.3415 5.59541 9.40113 5.58001 9.46076 5.5646C9.58559 5.53245 9.7105 5.50065 9.83547 5.46906C9.99383 5.42898 10.1519 5.3878 10.3099 5.34631C10.433 5.31416 10.5563 5.28275 10.6797 5.25152C10.738 5.23667 10.7962 5.22157 10.8543 5.20619C11.3483 5.07604 11.8187 5.02673 12.3262 5.12309C12.3656 5.06507 12.4049 5.00694 12.4441 4.94877C12.466 4.91642 12.4879 4.88406 12.5104 4.85072C12.6219 4.69158 12.6219 4.69158 12.6474 4.5069C12.606 4.40845 12.5526 4.35282 12.4774 4.27714C12.2131 3.98184 12.1453 3.69767 12.1503 3.30714C12.1697 3.05568 12.229 2.81663 12.2933 2.57363C12.316 2.48753 12.3376 2.40121 12.3592 2.3148C12.5156 1.69835 12.7384 1.16004 13.2695 0.775435C14.2483 0.200672 15.5188 0.403644 16.4833 0.947188ZM13.7617 1.26762C13.7332 1.28502 13.7047 1.30241 13.6753 1.32033C13.2779 1.58803 13.1375 1.9673 13.0234 2.41606C13.0146 2.45023 13.0057 2.4844 12.9966 2.5196C12.9673 2.63362 12.9388 2.74781 12.9106 2.8621C12.9015 2.89868 12.8923 2.93525 12.8829 2.97293C12.8235 3.22187 12.775 3.4482 12.8671 3.69523C13.0129 3.92156 13.1867 3.99866 13.4341 4.08056C13.5181 4.10706 13.5181 4.10706 13.5976 4.05668C13.5833 4.03823 13.569 4.01978 13.5542 4.00077C13.39 3.76869 13.3375 3.56149 13.3515 3.27739C13.386 3.09658 13.4416 2.98226 13.572 2.85185C13.7598 2.7356 13.8916 2.69044 14.1129 2.71599C14.151 2.72006 14.1891 2.72413 14.2284 2.72832C14.3215 2.74205 14.409 2.76212 14.5 2.7852C14.7798 2.80672 14.9881 2.75715 15.2123 2.58958C15.3535 2.46851 15.4795 2.35589 15.5715 2.19304C15.6484 2.08793 15.6484 2.08793 15.792 2.04948C15.9111 2.04736 15.9879 2.05634 16.0996 2.08793C16.1446 2.33176 16.1574 2.48496 16.0176 2.70317C16.0901 2.73076 16.1628 2.75804 16.2355 2.7852C16.2759 2.80043 16.3164 2.81565 16.358 2.83134C16.4688 2.87356 16.4688 2.87356 16.5918 2.86723C16.691 2.66882 16.656 2.39077 16.6062 2.18086C16.4682 1.80113 16.247 1.57166 15.8869 1.39859C15.6943 1.31694 15.4976 1.2633 15.2947 1.21379C15.2517 1.20327 15.2087 1.19276 15.1645 1.18193C14.6912 1.0726 14.1931 0.990116 13.7617 1.26762ZM15.4353 3.17164C15.3551 3.21523 15.3551 3.21523 15.2774 3.26777C14.9337 3.48494 14.4575 3.4193 14.0831 3.33635C14.0582 3.33043 14.0334 3.3245 14.0078 3.3184C13.9563 3.43344 13.9563 3.43344 13.9899 3.51835C14.0719 3.63959 14.1827 3.71752 14.2949 3.81059C14.3587 4.00183 14.3583 4.15871 14.2898 4.34892C14.1751 4.52471 14.0469 4.64523 13.8437 4.71293C13.7523 4.71578 13.6609 4.7164 13.5694 4.7155C13.4969 4.71494 13.4969 4.71494 13.4228 4.71438C13.3858 4.7139 13.3487 4.71343 13.3105 4.71293C13.3015 4.7353 13.2926 4.75766 13.2833 4.78071C13.1924 4.99693 13.0855 5.17988 12.9444 5.36742C12.8927 5.44772 12.8927 5.44772 12.9069 5.53389C12.9459 5.62598 12.9944 5.69657 13.0542 5.77678C13.1886 5.97067 13.2646 6.17146 13.3403 6.39393C13.4398 6.62938 13.5723 6.75184 13.7984 6.85744C13.9288 6.90172 14.0353 6.89815 14.1719 6.88676C14.0959 6.67059 14.0216 6.45955 13.9155 6.25615C13.7974 5.99361 13.7861 5.69231 13.8843 5.42142C13.9704 5.25772 14.0529 5.13898 14.2129 5.04106C14.5093 4.97555 14.7631 5.08401 15.03 5.20528C15.1777 5.25307 15.2548 5.25168 15.4023 5.20512C15.571 5.08355 15.5964 4.95727 15.6382 4.75908C15.7032 4.5075 15.7712 4.38931 15.9926 4.25439C16.0144 4.24329 16.0361 4.23219 16.0586 4.22075C16.0383 4.14334 16.0383 4.14334 16.0176 4.06438C15.9673 3.84226 15.9689 3.62705 15.9765 3.40043C15.7265 3.21284 15.7265 3.21284 15.4353 3.17164ZM10.9291 5.87932C10.8539 5.89934 10.8539 5.89934 10.7773 5.91977C10.5413 5.97786 10.5413 5.97786 10.3164 6.06645C10.3419 6.1767 10.3676 6.28693 10.3933 6.39714C10.4004 6.42799 10.4076 6.45884 10.4149 6.49063C10.459 6.67912 10.5077 6.86515 10.5625 7.05083C10.859 7.05648 11.1409 7.03002 11.4339 6.98714C11.5909 6.96755 11.6864 6.95914 11.8359 7.01798C11.916 7.09184 11.916 7.09184 11.9404 7.17131C11.9384 7.21318 11.9384 7.21318 11.9365 7.2559C11.9361 7.28382 11.9357 7.31174 11.9352 7.3405C11.9105 7.44281 11.8736 7.47619 11.793 7.54301C11.7112 7.56828 11.7112 7.56828 11.6194 7.58195C11.5865 7.5871 11.5536 7.59226 11.5197 7.59757C11.4684 7.60482 11.4684 7.60482 11.4161 7.61223C11.3815 7.61754 11.3468 7.62285 11.3111 7.62833C11.2257 7.64136 11.1402 7.65377 11.0547 7.66606C11.0259 7.76419 10.9978 7.86244 10.9701 7.96086C10.9619 7.98848 10.9537 8.01611 10.9453 8.04457C10.88 8.26871 10.88 8.26871 10.9316 8.48637C11.0324 8.55652 11.1254 8.61083 11.2341 8.66582C11.3011 8.70128 11.368 8.7368 11.4349 8.77236C11.4905 8.80155 11.4905 8.80155 11.5473 8.83134C11.7577 8.94322 11.9655 9.05996 12.1736 9.17617C12.334 9.2657 12.4946 9.35487 12.6556 9.44345C12.7334 9.48713 12.8106 9.53208 12.8867 9.57863C12.9353 9.60795 12.9353 9.60795 12.9848 9.63785C13.0124 9.65518 13.0399 9.6725 13.0684 9.69036C13.1484 9.72651 13.1484 9.72651 13.2354 9.68514C13.3248 9.62527 13.3577 9.57181 13.4105 9.47844C13.5271 9.29215 13.6674 9.15383 13.8258 9.00419C14.1281 8.71464 14.3193 8.39875 14.3414 7.97079C14.3412 7.91893 14.3412 7.91893 14.341 7.86601C14.3412 7.83122 14.3413 7.79643 14.3414 7.76059C14.3397 7.65945 14.3397 7.65945 14.2949 7.54301C14.2523 7.53947 14.2097 7.53593 14.1658 7.53228C13.8166 7.49887 13.5285 7.45131 13.2285 7.2559C13.1845 7.22799 13.1405 7.20007 13.0952 7.17131C12.8695 6.96924 12.7678 6.63472 12.6543 6.36125C12.5433 6.11127 12.4009 5.92829 12.1544 5.80241C11.7421 5.64904 11.3376 5.76591 10.9291 5.87932ZM9.2141 6.31511C9.18116 6.32301 9.14822 6.33092 9.11428 6.33906C9.08219 6.3477 9.05009 6.35635 9.01703 6.36526C8.98796 6.37282 8.95888 6.38038 8.92893 6.38818C8.71078 6.50426 8.59896 6.73338 8.49456 6.94748C8.48231 6.97233 8.47006 6.99717 8.45745 7.02276C8.43143 7.0756 8.40556 7.12851 8.37983 7.18149C8.31203 7.32107 8.24316 7.46012 8.17445 7.59925C8.15419 7.64039 8.15419 7.64039 8.13352 7.68235C8.0142 7.92425 7.88917 8.16283 7.76191 8.40064C7.66228 8.58793 7.56665 8.77681 7.47301 8.96718C7.44931 9.01528 7.4256 9.06338 7.40118 9.11294C7.35478 9.20741 7.30866 9.30201 7.26287 9.39677C7.13078 9.66554 7.01226 9.89807 6.76854 10.0809C6.57912 10.2419 6.43382 10.4719 6.41013 10.7227C6.40139 10.9725 6.40139 10.9725 6.49681 11.1985C6.60814 11.2968 6.64976 11.3146 6.7993 11.3318C6.95162 11.3166 7.02802 11.2933 7.13864 11.1872C7.38925 10.8736 7.47691 10.5276 7.52204 10.1373C7.61354 9.68257 7.99583 9.25227 8.25279 8.87089C8.30759 8.78933 8.36235 8.70775 8.41712 8.62617C8.45315 8.5725 8.48919 8.51884 8.52526 8.46519C8.62812 8.31203 8.72974 8.15816 8.83006 8.00332C8.85209 7.96949 8.87413 7.93565 8.89684 7.9008C8.93586 7.84074 8.9746 7.7805 9.01297 7.72003C9.18511 7.45658 9.35612 7.29001 9.67552 7.22258C9.71898 7.21301 9.76244 7.20344 9.80722 7.19358C9.8399 7.18708 9.87257 7.18057 9.90623 7.17387C9.88161 6.8661 9.81432 6.55911 9.70116 6.27153C9.5227 6.21204 9.39185 6.26693 9.2141 6.31511ZM10.6035 9.10161C10.5223 9.26403 10.4411 9.42645 10.3574 9.59379C10.6839 9.79306 11.0166 9.9793 11.352 10.1629C11.4531 10.2183 11.5542 10.2737 11.6552 10.3292C11.6799 10.3427 11.7047 10.3563 11.7302 10.3703C11.8606 10.4419 11.99 10.5149 12.1184 10.5901C12.1446 10.6053 12.1707 10.6205 12.1976 10.6362C12.2702 10.6787 12.3425 10.7214 12.4149 10.7642C12.5276 10.8337 12.5276 10.8337 12.6543 10.8243C12.7355 10.6618 12.8167 10.4994 12.9004 10.3321C12.6076 10.1432 12.3035 9.97625 11.998 9.80913C11.8917 9.75086 11.7855 9.69253 11.6792 9.63417C11.6534 9.61999 11.6275 9.60582 11.6009 9.59121C11.4544 9.5106 11.3084 9.42896 11.1633 9.34578C11.1329 9.32837 11.1025 9.31096 11.0712 9.29303C11.0174 9.26209 10.9638 9.23094 10.9103 9.19954C10.7977 9.1348 10.736 9.10161 10.6035 9.10161ZM8.5117 13.5313C8.32898 13.9577 8.32898 13.9577 8.14256 14.3926C8.392 14.578 8.64321 14.7568 8.90392 14.9258C8.92882 14.9421 8.95373 14.9584 8.9794 14.9752C9.10459 15.0622 9.10459 15.0622 9.24998 15.0899C9.31 15.0089 9.36512 14.9286 9.41917 14.8438C9.43445 14.8203 9.44973 14.7968 9.46548 14.7727C9.50328 14.7145 9.54073 14.6561 9.57811 14.5977C9.47171 14.4872 9.36359 14.3931 9.23973 14.3029C8.95879 14.0872 8.74296 13.8281 8.55272 13.5313C8.53918 13.5313 8.52565 13.5313 8.5117 13.5313ZM10.1933 14.8438C10.1163 14.944 10.0441 15.0446 9.97289 15.1488C9.9283 15.213 9.8837 15.2772 9.8391 15.3414C9.81624 15.3745 9.79338 15.4077 9.76983 15.4418C9.60358 15.6821 9.43486 15.9208 9.26539 16.1589C9.22906 16.21 9.19288 16.2613 9.15688 16.3126C8.81222 16.8032 8.49165 17.0058 7.93748 17.2227C7.89885 17.2381 7.86021 17.2536 7.82041 17.2695C7.69051 17.3213 7.56028 17.3721 7.42992 17.4227C7.36703 17.4476 7.36703 17.4476 7.30286 17.4731C7.06585 17.5633 6.87888 17.6161 6.62498 17.5918C6.54295 17.5483 6.54295 17.5483 6.50194 17.4688C6.48595 17.2897 6.48294 17.2102 6.58397 17.0586C6.68693 17.0137 6.78711 16.9751 6.89303 16.9386C6.9565 16.9159 7.01997 16.8931 7.08345 16.8703C7.18319 16.8351 7.283 16.8 7.38284 16.7651C8.0972 16.5149 8.0972 16.5149 8.61937 15.9845C8.63761 15.9593 8.65585 15.934 8.67464 15.908C8.73279 15.8269 8.73279 15.8269 8.79881 15.7051C8.74141 15.5329 8.61734 15.478 8.47069 15.3847C8.15955 15.1858 8.15955 15.1858 8.03554 15.0846C7.94846 15.0136 7.87969 14.9625 7.77342 14.9258C7.65587 14.9436 7.56423 14.9827 7.45619 15.0324C7.32454 15.0889 7.19906 15.1243 7.06055 15.1586C6.24591 15.3614 5.59238 15.8052 4.96417 16.3495C4.84342 16.4528 4.71841 16.5507 4.59391 16.6494C4.44313 16.7696 4.29429 16.8921 4.1453 17.0144C4.04274 17.0982 3.9395 17.1812 3.83592 17.2637C3.85839 17.4353 3.95482 17.5344 4.06407 17.6636C4.09796 17.704 4.13185 17.7444 4.16677 17.786C4.19294 17.8167 4.21911 17.8474 4.24608 17.879C4.52213 17.8297 4.77036 17.7427 5.02794 17.6342C5.22718 17.5544 5.38468 17.5342 5.59959 17.5508C5.68163 17.6175 5.68163 17.6175 5.72264 17.7149C5.73419 17.8564 5.72661 17.9491 5.68163 18.084C5.59894 18.1149 5.51583 18.1448 5.43137 18.1704C5.28675 18.215 5.14462 18.2659 5.0023 18.3173C4.95234 18.3352 4.90238 18.3532 4.8509 18.3716C4.81373 18.385 4.77656 18.3984 4.73827 18.4122C4.78174 18.4995 4.82563 18.5866 4.87029 18.6733C4.8963 18.7242 4.8963 18.7242 4.92284 18.7762C4.94885 18.8268 4.94885 18.8268 4.97539 18.8784C5.02899 18.9942 5.06791 19.1112 5.10741 19.2325C5.58764 19.2467 6.06782 19.2577 6.54822 19.2643C6.77133 19.2675 6.99429 19.2719 7.21732 19.2789C7.43274 19.2856 7.64803 19.2892 7.86356 19.2908C7.94558 19.292 8.0276 19.2942 8.10957 19.2975C8.53439 19.3303 8.53439 19.3303 8.90989 19.1723C9.04696 19.004 9.12632 18.8163 9.20897 18.6172C9.24845 18.5518 9.28916 18.4871 9.3325 18.4242C9.60101 18.0126 9.83893 17.5897 10.0697 17.1558C10.3366 16.6546 10.6036 16.1807 10.9726 15.7461C10.9997 15.7114 11.0267 15.6767 11.0545 15.6409C11.1284 15.5512 11.2012 15.479 11.2905 15.4052C11.3283 15.3737 11.3283 15.3737 11.3668 15.3416C11.3856 15.3262 11.4044 15.3108 11.4238 15.295C11.3885 15.2018 11.3885 15.2018 11.2778 15.1697C11.2093 15.1472 11.2093 15.1472 11.1394 15.1242C11.09 15.1078 11.0405 15.0914 10.9895 15.0745C10.9636 15.0661 10.9377 15.0577 10.9111 15.049C10.832 15.0234 10.7531 14.9972 10.6742 14.971C10.4386 14.8819 10.4386 14.8819 10.1933 14.8438ZM3.2617 17.7149C3.23839 17.7357 3.21507 17.7566 3.19105 17.778C3.15938 17.8062 3.12771 17.8345 3.09508 17.8636C3.06166 17.8935 3.02825 17.9235 2.99382 17.9544C2.93189 18.0086 2.86887 18.0616 2.80412 18.1124C2.77832 18.1326 2.75252 18.1529 2.72594 18.1737C2.70262 18.1913 2.6793 18.2088 2.65528 18.2268C2.59745 18.2889 2.59745 18.2889 2.58847 18.3865C2.61064 18.5271 2.66303 18.5848 2.7567 18.6916C2.79027 18.7308 2.82385 18.7699 2.85844 18.8103C2.8863 18.8425 2.8863 18.8425 2.91473 18.8753C3.02624 19.0058 3.13333 19.1399 3.2412 19.2735C3.28684 19.3296 3.33251 19.3858 3.37818 19.4419C3.45859 19.5408 3.53862 19.64 3.61819 19.7396C3.65028 19.7795 3.68237 19.8194 3.71544 19.8605C3.74299 19.895 3.77053 19.9296 3.79891 19.9651C3.87463 20.0502 3.9444 20.1156 4.041 20.1758C4.16337 20.1601 4.22287 20.1206 4.30328 20.0278C4.44228 19.8275 4.50474 19.6409 4.49217 19.3965C4.41792 19.0538 4.1759 18.8009 3.95897 18.5352C3.93479 18.5054 3.91062 18.4756 3.88571 18.4449C3.76039 18.2907 3.63458 18.1369 3.50796 17.9837C3.48716 17.9586 3.46635 17.9334 3.44492 17.9074C3.38656 17.84 3.32557 17.7771 3.2617 17.7149ZM9.90623 18.6993C9.81768 18.8105 9.74718 18.9345 9.67296 19.0556C9.64072 19.1058 9.64072 19.1058 9.60783 19.1571C9.58771 19.1897 9.56759 19.2224 9.54687 19.256C9.52827 19.2859 9.50968 19.3157 9.49052 19.3465C9.44546 19.4622 9.45859 19.5257 9.49608 19.6426C9.56532 19.714 9.56532 19.714 9.66014 19.7708C9.6972 19.7952 9.73427 19.8195 9.77245 19.8447C9.8166 19.8727 9.86075 19.9008 9.90623 19.9297C9.95983 19.9644 10.0134 19.9992 10.0669 20.034C10.1551 20.0914 10.2434 20.1485 10.3321 20.2052C10.4821 20.3013 10.6306 20.3988 10.7765 20.5011C10.804 20.5201 10.8314 20.5391 10.8597 20.5587C10.9114 20.5947 10.9628 20.6312 11.0138 20.6681C11.1701 20.7764 11.2752 20.8109 11.4648 20.7911C11.6267 20.5584 11.6715 20.3761 11.6289 20.0938C11.496 19.6321 11.0103 19.3854 10.6343 19.1402C10.5469 19.0828 10.4595 19.0253 10.3721 18.9678C10.3339 18.9428 10.2956 18.9177 10.2561 18.892C10.1898 18.8474 10.1247 18.8008 10.0617 18.7517C9.99218 18.6913 9.99218 18.6913 9.90623 18.6993Z" fill="#B27E02"/>
</g>
<defs>
<clipPath id="clip0_465_410">
<rect width="21" height="21" fill="white" transform="translate(0.554688 0.447266)"/>
</clipPath>
</defs>
</svg>
