<svg width="23" height="22" viewBox="0 0 23 22" fill="none" xmlns="http://www.w3.org/2000/svg">
<path d="M20.3245 15.2048V4.36217C20.3245 3.28419 19.4441 2.48469 18.3751 2.57452H18.3212C16.4348 2.73622 13.5691 3.69741 11.9701 4.70353L11.8174 4.80234C11.5569 4.96404 11.1257 4.96404 10.8652 4.80234L10.6406 4.66759C9.04162 3.67046 6.18498 2.71825 4.29852 2.56554C3.22952 2.4757 2.35815 3.28419 2.35815 4.35318V15.2048C2.35815 16.0672 3.05884 16.8757 3.92122 16.9835L4.18173 17.0194C6.13108 17.2799 9.14044 18.2681 10.8652 19.2113L10.9011 19.2293C11.1437 19.364 11.53 19.364 11.7635 19.2293C13.4883 18.2771 16.5066 17.2799 18.465 17.0194L18.7614 16.9835C19.6238 16.8757 20.3245 16.0672 20.3245 15.2048Z" stroke="#B27E02" stroke-width="1.5" stroke-linecap="round" stroke-linejoin="round"/>
<path d="M11.3413 5.09875V18.5735" stroke="#B27E02" stroke-width="1.5" stroke-linecap="round" stroke-linejoin="round"/>
<path d="M7.52341 7.7937H5.5022" stroke="#B27E02" stroke-width="1.5" stroke-linecap="round" stroke-linejoin="round"/>
<path d="M8.19714 10.4886H5.5022" stroke="#B27E02" stroke-width="1.5" stroke-linecap="round" stroke-linejoin="round"/>
</svg>
