<svg width="22" height="22" viewBox="0 0 22 22" fill="none" xmlns="http://www.w3.org/2000/svg">
<path d="M2.22307 1.97599C6.02814 2.58274 9.90741 2.81278 20.6421 1.85419C20.8092 1.83171 20.9523 1.83896 21.0984 1.9315C21.166 2.04037 21.1804 2.1241 21.1856 2.25193C21.0966 2.42901 20.9692 2.57293 20.8395 2.72105C20.795 2.77231 20.7506 2.82358 20.7062 2.87485C20.6836 2.90087 20.6609 2.92688 20.6376 2.95368C20.5334 3.07382 20.4301 3.19484 20.3268 3.31577C20.1335 3.54155 19.9389 3.76629 19.7441 3.99076C19.595 4.16257 19.4467 4.33496 19.2988 4.50779C19.1716 4.65645 19.0442 4.80498 18.9164 4.95319C18.8936 4.97963 18.8709 5.00606 18.8474 5.03329C18.8017 5.08594 18.7557 5.13832 18.7094 5.19041C18.6086 5.304 18.5173 5.41347 18.4327 5.54007C18.3529 5.65366 18.3529 5.65366 18.1504 5.82029C17.8797 5.82029 17.609 5.82029 17.3301 5.82029C17.3301 6.76775 17.3301 7.71521 17.3301 8.69138C18.0516 8.68489 18.0516 8.68489 18.7731 8.6766C18.8636 8.67612 18.954 8.67571 19.0444 8.67536C19.0914 8.67452 19.1384 8.67368 19.1868 8.67282C19.2317 8.6728 19.2767 8.67278 19.323 8.67276C19.362 8.67239 19.401 8.67203 19.4411 8.67165C19.5771 8.69749 19.6253 8.74708 19.709 8.85545C19.7511 9.14778 19.6496 9.37401 19.5368 9.64051C19.519 9.68336 19.5013 9.7262 19.4831 9.77034C19.4456 9.8605 19.4078 9.95053 19.3698 10.0405C19.3117 10.178 19.255 10.316 19.1983 10.4541C19.1617 10.5418 19.1249 10.6295 19.0882 10.7172C19.0713 10.7584 19.0544 10.7995 19.037 10.842C19.0206 10.8803 19.0042 10.9187 18.9873 10.9582C18.9731 10.9918 18.959 11.0254 18.9445 11.0601C18.8887 11.1523 18.8887 11.1523 18.6836 11.3164C18.2369 11.3164 17.7903 11.3164 17.3301 11.3164C17.3301 13.9693 17.3301 16.6222 17.3301 19.3554C18.6295 19.3554 19.9288 19.3554 21.2676 19.3554C21.5137 19.4785 21.5137 19.4785 21.5547 19.5605C21.5735 19.8137 21.5735 19.8137 21.5009 19.945C21.353 20.0874 21.1657 20.0585 20.9738 20.0581C20.9391 20.0582 20.9043 20.0583 20.8686 20.0584C20.7513 20.0586 20.634 20.0585 20.5166 20.0585C20.4321 20.0586 20.3475 20.0587 20.263 20.0588C20.0298 20.0592 19.7967 20.0592 19.5635 20.0593C19.3124 20.0594 19.0613 20.0597 18.8101 20.0599C18.232 20.0605 17.6539 20.0608 17.0758 20.0609C16.7902 20.061 16.5046 20.0612 16.2191 20.0613C15.2419 20.0619 14.2647 20.0623 13.2875 20.0625C13.2261 20.0625 13.1648 20.0625 13.1034 20.0625C13.0419 20.0625 12.9804 20.0625 12.9189 20.0625C12.7955 20.0625 12.6721 20.0625 12.5487 20.0626C12.5181 20.0626 12.4875 20.0626 12.456 20.0626C11.4636 20.0627 10.4712 20.0634 9.47876 20.0643C8.42996 20.0653 7.38116 20.0659 6.33236 20.066C6.21729 20.066 6.10222 20.066 5.98716 20.066C5.95882 20.066 5.93049 20.066 5.9013 20.066C5.4448 20.066 4.9883 20.0665 4.5318 20.0671C4.07323 20.0677 3.61465 20.0678 3.15608 20.0675C2.90751 20.0673 2.65895 20.0674 2.41038 20.0679C2.18304 20.0685 1.9557 20.0684 1.72836 20.0679C1.64592 20.0678 1.56347 20.068 1.48103 20.0683C1.36933 20.0688 1.25766 20.0685 1.14596 20.068C1.11363 20.0683 1.0813 20.0686 1.048 20.0689C0.863022 20.0671 0.742462 20.0451 0.595713 19.9297C0.532308 19.8029 0.542655 19.7002 0.554697 19.5605C0.645696 19.4413 0.69905 19.403 0.841807 19.3554C0.89959 19.3518 0.957531 19.3504 1.01543 19.3505C1.05073 19.3505 1.08602 19.3504 1.12239 19.3503C1.18052 19.3506 1.18052 19.3506 1.23982 19.3508C1.30204 19.3508 1.30204 19.3508 1.36552 19.3508C1.50001 19.3508 1.6345 19.3511 1.76898 19.3514C1.85193 19.3515 1.93488 19.3515 2.01783 19.3516C2.32565 19.3518 2.63347 19.3524 2.94129 19.3529C3.62905 19.3537 4.3168 19.3546 5.0254 19.3554C5.0254 16.7026 5.0254 14.0497 5.0254 11.3164C4.49753 11.3164 3.96966 11.3164 3.42579 11.3164C3.19508 11.1318 3.19508 11.1318 3.13538 10.9839C3.12183 10.9512 3.10828 10.9184 3.09433 10.8847C3.08052 10.8497 3.06671 10.8146 3.05248 10.7785C3.03759 10.7421 3.0227 10.7057 3.00735 10.6682C2.95999 10.5521 2.91346 10.4356 2.86695 10.3192C2.83539 10.2413 2.80378 10.1635 2.7721 10.0857C2.71379 9.94226 2.65582 9.79872 2.59817 9.65504C2.55146 9.5388 2.50332 9.42343 2.4532 9.30862C2.3806 9.13667 2.3792 9.04023 2.4004 8.85545C2.48659 8.74033 2.53462 8.69659 2.67762 8.67165C2.72097 8.67202 2.76433 8.67238 2.80899 8.67276C2.88391 8.67279 2.88391 8.67279 2.96034 8.67282C3.01264 8.67366 3.06493 8.6745 3.11881 8.67536C3.19113 8.67561 3.19113 8.67561 3.26491 8.67586C3.44501 8.67672 3.6251 8.67901 3.80519 8.68113C4.20786 8.68451 4.61053 8.6879 5.0254 8.69138C5.0254 7.74392 5.0254 6.79646 5.0254 5.82029C4.67349 5.82029 4.32157 5.82029 3.95899 5.82029C3.63955 5.50085 3.63955 5.50085 3.495 5.31785C3.36726 5.15908 3.23575 5.00628 3.09767 4.85642C2.92894 4.67309 2.77074 4.48357 2.61429 4.28973C2.52524 4.18183 2.43311 4.07797 2.33888 3.97459C2.21191 3.8353 2.09067 3.69315 1.9723 3.54649C1.84614 3.39049 1.71595 3.24037 1.58009 3.09275C0.921269 2.37525 0.921269 2.37525 0.926401 2.12888C0.964853 2.00584 0.964853 2.00584 1.04176 1.90586C1.36544 1.74402 1.87394 1.92031 2.22307 1.97599ZM2.15431 2.66209C2.2883 2.84454 2.42293 3.02162 2.57728 3.1876C2.70694 3.3294 2.83094 3.47381 2.95155 3.62339C3.07771 3.77939 3.2079 3.9295 3.34376 4.07713C3.5086 4.25623 3.66412 4.4405 3.8156 4.631C3.84938 4.67155 3.88317 4.7121 3.91798 4.75388C3.94153 4.78817 3.96509 4.82245 3.98936 4.85777C4.11982 5.03047 4.21497 5.14648 4.43024 5.19888C4.59362 5.20909 4.75438 5.20883 4.91773 5.20249C5.0283 5.20027 5.13879 5.19931 5.24938 5.19849C5.29794 5.19695 5.3465 5.19541 5.39652 5.19383C5.51759 5.20505 5.51759 5.20505 5.59331 5.26186C5.6864 5.39216 5.68693 5.47918 5.68734 5.63802C5.68756 5.68676 5.68779 5.7355 5.68802 5.78571C5.68806 5.83974 5.6881 5.89376 5.68814 5.94942C5.68833 6.00701 5.68853 6.0646 5.68875 6.12219C5.68931 6.28101 5.68962 6.43982 5.68988 6.59863C5.69021 6.76969 5.69077 6.94074 5.6913 7.11179C5.6922 7.40833 5.69294 7.70488 5.69358 8.00142C5.69451 8.43018 5.69567 8.85894 5.69688 9.28769C5.69883 9.98326 5.70061 10.6788 5.70227 11.3744C5.70388 12.0502 5.70558 12.726 5.7074 13.4019C5.70751 13.4435 5.70762 13.4851 5.70773 13.528C5.70829 13.7369 5.70886 13.9457 5.70942 14.1546C5.7141 15.8882 5.71847 17.6218 5.72267 19.3554C6.25054 19.3554 6.77841 19.3554 7.32228 19.3554C7.32309 19.1004 7.3239 18.8453 7.32474 18.5824C7.32748 17.7413 7.33066 16.9002 7.33407 16.059C7.33613 15.5488 7.33803 15.0387 7.33958 14.5285C7.34093 14.0839 7.34256 13.6394 7.34454 13.1948C7.34557 12.9593 7.34647 12.7238 7.34702 12.4883C7.34755 12.2668 7.34845 12.0453 7.34965 11.8238C7.35002 11.7424 7.35025 11.661 7.35034 11.5795C7.35047 11.4686 7.35111 11.3577 7.35187 11.2467C7.35179 11.2143 7.35171 11.1819 7.35163 11.1485C7.35451 10.8687 7.35451 10.8687 7.44532 10.7422C7.56511 10.6823 7.68536 10.6951 7.81667 10.6951C7.86187 10.6949 7.86187 10.6949 7.90798 10.6947C8.00946 10.6942 8.11095 10.694 8.21243 10.6939C8.28498 10.6936 8.35753 10.6934 8.43008 10.6931C8.62753 10.6924 8.82497 10.6919 9.02242 10.6916C9.14567 10.6914 9.26891 10.6911 9.39216 10.6909C9.77744 10.6901 10.1627 10.6895 10.548 10.6892C10.9934 10.6888 11.4387 10.6877 11.8841 10.686C12.228 10.6848 12.5718 10.6842 12.9157 10.684C13.1213 10.6839 13.3268 10.6836 13.5324 10.6825C13.7257 10.6816 13.9189 10.6814 14.1122 10.6818C14.1833 10.6819 14.2543 10.6816 14.3254 10.681C14.4221 10.6803 14.5189 10.6806 14.6156 10.6811C14.644 10.6807 14.6723 10.6802 14.7014 10.6798C14.8209 10.6814 14.8938 10.6883 14.9891 10.7631C15.0525 10.9099 15.0505 11.0501 15.0496 11.2073C15.0498 11.2421 15.0501 11.2769 15.0504 11.3127C15.0512 11.4296 15.051 11.5464 15.0509 11.6632C15.0513 11.7469 15.0517 11.8306 15.0522 11.9142C15.0533 12.1416 15.0537 12.3689 15.054 12.5963C15.0544 12.8338 15.0554 13.0713 15.0564 13.3088C15.0582 13.7587 15.0594 14.2086 15.0603 14.6584C15.0615 15.1706 15.0633 15.6827 15.0651 16.1948C15.0689 17.2483 15.0718 18.3019 15.0742 19.3554C15.6021 19.3554 16.13 19.3554 16.6738 19.3554C16.674 19.18 16.6741 19.0045 16.6743 18.8237C16.6757 17.2161 16.678 15.6084 16.6811 14.0007C16.6815 13.7902 16.6819 13.5796 16.6823 13.3691C16.6825 13.3062 16.6825 13.3062 16.6826 13.2421C16.6839 12.5626 16.6846 11.8832 16.685 11.2038C16.6856 10.507 16.6867 9.81025 16.6884 9.1135C16.6894 8.68329 16.69 8.25309 16.6899 7.82288C16.6899 7.52819 16.6905 7.2335 16.6916 6.9388C16.6922 6.76858 16.6925 6.59837 16.6921 6.42814C16.6918 6.27246 16.6922 6.11681 16.6932 5.96113C16.6934 5.90466 16.6934 5.84818 16.6931 5.79171C16.6926 5.71524 16.6933 5.63878 16.694 5.56231C16.6941 5.51975 16.6941 5.47718 16.6942 5.43333C16.7149 5.3281 16.7149 5.3281 16.7921 5.25256C16.8995 5.19382 16.9638 5.19437 17.0854 5.20137C17.5535 5.23499 17.5535 5.23499 17.9718 5.06807C18.0902 4.94832 18.1807 4.812 18.2734 4.67185C18.335 4.59516 18.3974 4.51908 18.4606 4.4437C18.4902 4.40685 18.5199 4.37 18.5505 4.33203C18.6462 4.2163 18.7459 4.10559 18.8477 3.99509C19.0153 3.81302 19.1722 3.62479 19.3274 3.43209C19.46 3.27245 19.6011 3.12121 19.7433 2.97002C19.828 2.8718 19.89 2.77384 19.9551 2.66209C19.9194 2.66694 19.9194 2.66694 19.883 2.67188C18.2625 2.89194 16.6493 3.08764 15.0178 3.20298C14.9687 3.20646 14.9195 3.20995 14.8689 3.21354C14.541 3.23655 14.2129 3.2578 13.8848 3.27732C13.8275 3.2808 13.8275 3.2808 13.7691 3.28435C12.9557 3.33179 12.1406 3.32602 11.3261 3.32594C11.1636 3.32593 11.0011 3.32621 10.8385 3.32678C9.37074 3.33178 7.90843 3.28742 6.44557 3.16196C6.38427 3.15684 6.38427 3.15684 6.32173 3.15161C4.92689 3.03459 3.53925 2.86381 2.15431 2.66209ZM3.22071 9.34763C3.28585 9.5109 3.35099 9.67417 3.4181 9.84238C3.43839 9.8933 3.45869 9.94422 3.47959 9.99668C3.50411 10.0581 3.50411 10.0581 3.52913 10.1207C3.54567 10.1621 3.56221 10.2036 3.57925 10.2463C3.63573 10.385 3.69494 10.5225 3.75392 10.6601C4.17351 10.6601 4.5931 10.6601 5.0254 10.6601C5.0254 10.227 5.0254 9.79388 5.0254 9.34763C4.42985 9.34763 3.83431 9.34763 3.22071 9.34763ZM17.3711 9.34763C17.3711 9.78076 17.3711 10.2139 17.3711 10.6601C17.6959 10.6601 18.0208 10.6601 18.3555 10.6601C18.4315 10.4798 18.5074 10.2995 18.5833 10.1191C18.6091 10.0577 18.635 9.99636 18.6609 9.93498C18.698 9.84695 18.735 9.75887 18.772 9.67079C18.7837 9.64319 18.7954 9.61559 18.8074 9.58715C18.8643 9.47125 18.8643 9.47125 18.8887 9.34763C18.3879 9.34763 17.8871 9.34763 17.3711 9.34763ZM8.01954 11.3164C8.01954 13.9693 8.01954 16.6222 8.01954 19.3554C10.1175 19.3554 12.2154 19.3554 14.377 19.3554C14.377 16.7026 14.377 14.0497 14.377 11.3164C12.279 11.3164 10.1811 11.3164 8.01954 11.3164Z" fill="#B27E02"/>
<path d="M12.3136 5.52661C12.3461 5.52641 12.3787 5.5262 12.4122 5.526C12.5202 5.52539 12.6281 5.52512 12.7361 5.52489C12.811 5.52465 12.8859 5.52442 12.9608 5.52418C13.1179 5.52375 13.2751 5.52351 13.4322 5.52337C13.6337 5.52314 13.8351 5.52216 14.0366 5.52099C14.1914 5.52023 14.3461 5.52001 14.5009 5.51995C14.5751 5.51983 14.6494 5.5195 14.7237 5.51896C14.8276 5.51826 14.9314 5.51833 15.0353 5.5186C15.0814 5.51803 15.0814 5.51803 15.1284 5.51746C15.2569 5.51849 15.3476 5.52563 15.4612 5.58797C15.585 5.71959 15.572 5.85941 15.5731 6.031C15.5735 6.08288 15.5739 6.13476 15.5743 6.18822C15.5745 6.24493 15.5746 6.30163 15.5748 6.35834C15.575 6.41653 15.5753 6.47471 15.5755 6.5329C15.5759 6.65488 15.5762 6.77687 15.5763 6.89885C15.5765 7.05493 15.5775 7.211 15.5787 7.36707C15.5795 7.48727 15.5797 7.60747 15.5797 7.72767C15.5799 7.7852 15.5802 7.84273 15.5807 7.90025C15.5814 7.98084 15.5813 8.06143 15.5811 8.14202C15.5813 8.21073 15.5813 8.21073 15.5815 8.28083C15.5645 8.42018 15.5265 8.49725 15.4434 8.60939C15.3172 8.6725 15.1845 8.65681 15.0459 8.65702C15.0134 8.65722 14.9808 8.65742 14.9473 8.65763C14.8393 8.65824 14.7314 8.65851 14.6234 8.65874C14.5485 8.65898 14.4736 8.65921 14.3987 8.65945C14.2416 8.65988 14.0844 8.66012 13.9273 8.66026C13.7258 8.66049 13.5243 8.66147 13.3229 8.66264C13.1681 8.6634 13.0134 8.66362 12.8586 8.66368C12.7844 8.6638 12.7101 8.66413 12.6358 8.66467C12.5319 8.66537 12.4281 8.66529 12.3242 8.66503C12.2934 8.66541 12.2627 8.66578 12.231 8.66617C12.1026 8.66514 12.0119 8.65799 11.8983 8.59566C11.7745 8.46404 11.7875 8.32422 11.7864 8.15263C11.786 8.10075 11.7856 8.04887 11.7852 7.99541C11.785 7.9387 11.7848 7.882 11.7847 7.82529C11.7845 7.7671 11.7842 7.70892 11.784 7.65073C11.7836 7.52875 11.7833 7.40676 11.7832 7.28478C11.7829 7.1287 11.782 6.97263 11.7808 6.81656C11.78 6.69636 11.7798 6.57616 11.7798 6.45596C11.7796 6.39843 11.7793 6.3409 11.7788 6.28338C11.7781 6.20279 11.7782 6.1222 11.7784 6.04161C11.7783 5.9958 11.7781 5.95 11.778 5.9028C11.795 5.76345 11.833 5.68638 11.9161 5.57424C12.0423 5.51113 12.175 5.52682 12.3136 5.52661ZM12.4903 6.18947C12.4903 6.78502 12.4903 7.38056 12.4903 7.99416C13.2753 7.99416 14.0604 7.99416 14.8692 7.99416C14.8692 7.39861 14.8692 6.80306 14.8692 6.18947C14.0842 6.18947 13.2991 6.18947 12.4903 6.18947Z" fill="#B27E02"/>
<path d="M6.85782 5.52526C6.90655 5.52476 6.90655 5.52476 6.95627 5.52425C7.06403 5.52323 7.17178 5.52255 7.27955 5.52196C7.31632 5.52174 7.35309 5.52152 7.39098 5.5213C7.58562 5.5202 7.78026 5.51941 7.9749 5.51881C8.176 5.51813 8.37707 5.51629 8.57816 5.51421C8.73274 5.51283 8.88731 5.51235 9.04189 5.51212C9.11602 5.51184 9.19014 5.51122 9.26427 5.51024C9.36806 5.50894 9.47179 5.50894 9.57559 5.50924C9.60617 5.50857 9.63676 5.5079 9.66827 5.5072C9.82327 5.50906 9.90088 5.52928 10.0279 5.62043C10.1279 5.76161 10.1373 5.83493 10.1379 6.00678C10.1386 6.0603 10.1392 6.11381 10.1399 6.16896C10.1395 6.22705 10.1391 6.28514 10.1386 6.34323C10.1388 6.40314 10.139 6.46305 10.1392 6.52296C10.1395 6.64832 10.1391 6.77366 10.1381 6.89903C10.137 7.05944 10.1376 7.21979 10.1389 7.38021C10.1396 7.50386 10.1394 7.62749 10.1388 7.75115C10.1387 7.81028 10.1389 7.86941 10.1393 7.92854C10.1399 8.01128 10.1389 8.09402 10.1379 8.17676C10.1377 8.24728 10.1377 8.24728 10.1374 8.31923C10.1021 8.49012 10.0474 8.54888 9.90631 8.65036C9.78828 8.67047 9.69463 8.6781 9.57689 8.67625C9.54432 8.67654 9.51175 8.67683 9.47819 8.67714C9.37088 8.67783 9.26364 8.67703 9.15633 8.67616C9.08161 8.67619 9.00689 8.67629 8.93217 8.67646C8.77574 8.67657 8.61933 8.67597 8.4629 8.67484C8.2624 8.67345 8.06194 8.67369 7.86143 8.67446C7.7072 8.67489 7.55299 8.67453 7.39877 8.67391C7.32484 8.6737 7.2509 8.67372 7.17697 8.67398C7.07367 8.6742 6.97043 8.67336 6.86714 8.67224C6.82133 8.67264 6.82133 8.67264 6.7746 8.67305C6.63404 8.67045 6.55669 8.66073 6.4433 8.57465C6.33402 8.42458 6.33248 8.30011 6.33134 8.11975C6.33095 8.06964 6.33055 8.01953 6.33015 7.96791C6.32995 7.91314 6.32977 7.85838 6.32962 7.80361C6.32938 7.74736 6.32915 7.69112 6.32891 7.63487C6.32848 7.51692 6.32824 7.39897 6.3281 7.28101C6.32787 7.13027 6.32689 6.97954 6.32572 6.82881C6.32495 6.71258 6.32474 6.59636 6.32468 6.48013C6.32449 6.39766 6.32373 6.31519 6.32296 6.23272C6.32308 6.18223 6.3232 6.13173 6.32333 6.0797C6.32318 6.03545 6.32303 5.99119 6.32288 5.94559C6.3405 5.79906 6.38527 5.7002 6.461 5.57419C6.587 5.51119 6.7195 5.52605 6.85782 5.52526ZM7.03521 6.18942C7.03521 6.78497 7.03521 7.38052 7.03521 7.99411C7.83379 7.99411 8.63236 7.99411 9.45514 7.99411C9.45514 7.39856 9.45514 6.80302 9.45514 6.18942C8.65656 6.18942 7.85799 6.18942 7.03521 6.18942Z" fill="#B27E02"/>
</svg>
