<svg width="22" height="22" viewBox="0 0 22 22" fill="none" xmlns="http://www.w3.org/2000/svg">
<g clip-path="url(#clip0_465_368)">
<path d="M10.5489 18.2442L10.5475 17.4074C10.5513 17.3668 10.548 17.3176 10.5385 17.278C10.3512 16.4991 11.0714 15.3639 11.3647 14.9921C11.4528 14.8805 11.4695 14.7284 11.4074 14.6005C11.3456 14.473 11.216 14.3914 11.0738 14.3914H10.6257C9.68069 14.3914 8.91173 15.1606 8.91173 16.1056C8.91173 16.3103 9.07759 16.4764 9.28259 16.4764C9.48734 16.4764 9.65345 16.3103 9.65345 16.1056C9.65345 15.6623 9.95139 15.2876 10.3577 15.1707C10.0231 15.7482 9.64041 16.6237 9.80726 17.4065V18.2442C9.80726 18.7696 9.60227 19.2645 9.23046 19.6368C8.8589 20.0087 8.36417 20.2134 7.83786 20.2134H6.00343C5.79868 20.2134 5.63257 20.3795 5.63257 20.5843C5.63257 20.789 5.79868 20.9551 6.00343 20.9551H7.83786C8.5624 20.9551 9.24326 20.6731 9.75509 20.1613C10.2669 19.6484 10.5489 18.9676 10.5489 18.2442Z" fill="#B27E02"/>
<path d="M8.38662 18.7159C8.59137 18.7159 8.75748 18.5498 8.75748 18.3451V16.4652C8.75748 15.8453 8.51607 15.2624 8.07786 14.8245L6.7229 13.4695C6.54375 13.2903 6.39503 13.0837 6.28108 12.8567L5.59301 11.481L4.75497 9.51765C4.69435 9.37664 4.55215 9.27816 4.39863 9.29313C4.24458 9.2994 4.11058 9.39985 4.06206 9.54615L3.77138 10.4177C3.68086 10.6891 3.45027 10.8924 3.16997 10.9489L1.59653 11.2632C1.42319 11.298 1.2981 11.4501 1.2981 11.6268V12.1908C1.2981 12.4984 1.41786 12.7872 1.63537 13.005C1.85291 13.2218 2.14191 13.3415 2.44924 13.3415H2.81383L3.11419 13.7916C3.3257 14.1093 3.3257 14.5193 3.11419 14.837C2.79258 15.3189 2.70108 15.9147 2.8626 16.471L3.12817 17.3861C3.18539 17.5831 3.39084 17.6971 3.58787 17.6386C3.78442 17.5816 3.89762 17.376 3.84041 17.1794L3.57483 16.2643C3.47438 15.9181 3.53136 15.5483 3.73127 15.2484C3.88335 15.02 3.97125 14.7644 4.00094 14.5039L5.89431 13.6364C5.987 13.7625 6.08745 13.8828 6.19852 13.9939L7.55347 15.3488C7.85165 15.6468 8.01584 16.0432 8.01584 16.4652V18.3451C8.0158 18.5498 8.18191 18.7159 8.38662 18.7159ZM3.32078 12.765C3.25196 12.6617 3.13633 12.5998 3.01222 12.5998H2.4492C2.33961 12.5998 2.23674 12.5574 2.15946 12.4801C2.08342 12.4043 2.0397 12.2985 2.0397 12.1908V11.931L3.31545 11.6761C3.83721 11.5713 4.26935 11.2024 4.45601 10.7065L4.92006 11.7925L5.51979 12.9924L3.90579 13.7319C3.86063 13.6104 3.80534 13.4914 3.73122 13.3801L3.32078 12.765Z" fill="#B27E02"/>
<path d="M5.99141 18.417C6.22536 18.1264 6.63773 18.0356 6.97574 18.2051L7.02209 18.2278C7.2051 18.3205 7.42794 18.2471 7.52043 18.0646C7.61292 17.882 7.53974 17.659 7.35723 17.5662L7.30362 17.5396C6.9458 17.3607 6.54311 17.3399 6.17684 17.4484L6.37318 16.5466C6.41674 16.3465 6.28979 16.149 6.08964 16.1054C5.8896 16.062 5.69224 16.1889 5.64868 16.3889L5.35185 17.752C5.34389 17.781 5.33589 17.81 5.32794 17.839L4.62969 19.9338C4.57403 20.1007 4.4178 20.2134 4.2418 20.2134H4.06064L4.20091 19.9328C4.23413 19.8663 4.2626 19.7976 4.2861 19.7271L4.59757 18.7932C4.68432 18.5331 4.72423 18.2596 4.71541 17.9855L4.68091 16.9123C4.67435 16.7076 4.50303 16.547 4.29832 16.5536H4.29799C4.09341 16.5603 3.93291 16.7315 3.93952 16.9361L3.97413 18.0086C3.98016 18.1952 3.95301 18.3814 3.89399 18.5586L3.58243 19.4933C3.56812 19.5278 3.55389 19.5622 3.53957 19.5967L3.12868 20.4186C3.07122 20.5335 3.07749 20.6697 3.14508 20.7793C3.21268 20.8884 3.33195 20.955 3.46041 20.955H4.24139C4.73686 20.955 5.17679 20.638 5.33347 20.1679L5.86438 18.5755L5.99141 18.417Z" fill="#B27E02"/>
<path d="M11.14 1.77146L8.76179 9.21013C8.68501 9.45204 8.72676 9.70847 8.87647 9.91318C9.02663 10.1179 9.25865 10.2357 9.51291 10.2357H11.5277C11.3727 10.7233 11.3705 11.2536 11.5374 11.7674C11.626 12.0396 11.7573 12.2893 11.9222 12.5118V20.4606C11.9222 20.6653 12.0881 20.8315 12.2931 20.8315C12.4978 20.8315 12.6639 20.6653 12.6639 20.4606V13.1844C13.0968 13.4535 13.6075 13.612 14.1541 13.612H15.5153V20.4592C15.5153 20.6639 15.6812 20.83 15.8862 20.83C16.0909 20.83 16.257 20.6639 16.257 20.4592V13.612H18.6552C19.7151 13.612 20.6316 12.8539 20.7869 11.8481C20.8798 11.2478 20.7065 10.6394 20.3115 10.1788C19.9216 9.7234 19.3593 9.46266 18.7692 9.46266H18.7673C18.7675 9.45253 18.7678 9.44285 18.7678 9.43371C18.7678 8.17194 17.7429 7.14585 16.4828 7.14585C16.0356 7.14585 15.6139 7.27842 15.2551 7.50688L13.4199 1.77002C13.2564 1.2654 12.8088 0.939453 12.28 0.939453C11.7513 0.939453 11.3039 1.2654 11.14 1.77146ZM18.0259 9.43371C18.0259 9.46414 18.0228 9.50323 18.0189 9.5433C18.0035 9.70892 18.0576 9.87454 18.1674 9.99866C18.2768 10.1223 18.434 10.1961 18.5979 10.201C18.6631 10.2029 18.7261 10.2043 18.7691 10.2043C19.1424 10.2043 19.4995 10.371 19.7482 10.6611C20.0022 10.9576 20.1137 11.3488 20.0538 11.7351C19.9538 12.3821 19.3527 12.8703 18.6552 12.8703H16.257V12.3725L17.2901 11.3391C17.435 11.1942 17.435 10.9595 17.2901 10.8147C17.1455 10.6698 16.9105 10.6698 16.7657 10.8147L16.257 11.3235V10.2251C16.257 10.0204 16.0909 9.85424 15.8861 9.85424C15.6811 9.85424 15.5153 10.0204 15.5153 10.2251V11.6603L15.1596 11.3048C15.0147 11.1599 14.7801 11.1599 14.6352 11.3048C14.4904 11.4497 14.4904 11.6844 14.6352 11.8292L15.5153 12.709V12.8702H14.154C13.2836 12.8702 12.4978 12.3227 12.2428 11.5385C12.0656 10.9928 12.1513 10.4221 12.478 9.97249C12.7957 9.53547 13.3022 9.27424 13.8327 9.27424C14.0176 9.27424 14.1733 9.29064 14.3076 9.32444C14.6082 9.3988 14.9209 9.23027 15.0193 8.93717C15.2301 8.30943 15.8182 7.88742 16.4827 7.88742C17.3338 7.88754 18.0259 8.58095 18.0259 9.43371ZM12.28 1.68114C12.3577 1.68114 12.6187 1.70431 12.7139 1.99741L14.6548 8.06522C14.5379 8.22153 14.4365 8.39117 14.3617 8.57755C14.2011 8.54711 14.0268 8.53263 13.8327 8.53263C13.4196 8.53263 13.0188 8.64453 12.6639 8.84312V8.39814L13.5376 7.52439C13.6825 7.37952 13.6825 7.14483 13.5379 7C13.393 6.85514 13.1583 6.85514 13.0133 7L12.6639 7.3495V6.01592C12.6639 5.81117 12.4978 5.64505 12.293 5.64505C12.088 5.64505 11.9222 5.81117 11.9222 6.01592V6.94172L11.6684 6.68808C11.5235 6.54321 11.2886 6.54321 11.144 6.68808C10.9992 6.83295 10.9992 7.06764 11.144 7.21246L11.9222 7.9907V9.48297C11.919 9.48682 11.9159 9.49023 11.913 9.49408H9.51291L9.46849 9.43518L11.8459 1.99889C11.9415 1.70431 12.2023 1.68114 12.28 1.68114Z" fill="#B27E02"/>
</g>
<defs>
<clipPath id="clip0_465_368">
<rect width="21" height="21" fill="white" transform="translate(0.554688 0.447266)"/>
</clipPath>
</defs>
</svg>
