<svg width="26" height="26" viewBox="0 0 26 26" fill="none" xmlns="http://www.w3.org/2000/svg">
<g clip-path="url(#clip0_1_3269)">
<path d="M25.1765 21.4452H24.1115C23.9615 15.6952 23.8165 10.0402 23.6765 4.3302H25.0265C25.2865 4.3302 25.5615 4.3102 25.5615 3.9652C25.5615 3.6202 25.2965 3.6002 25.0365 3.6102H23.6315V2.2252C23.6315 1.9602 23.5965 1.6902 23.2515 1.7052C22.9115 1.7202 22.9265 2.0002 22.9265 2.2552C22.9315 2.7002 22.9315 3.1452 22.9315 3.5802H3.68155V2.2552C3.68655 1.9952 3.69655 1.7202 3.35655 1.7052C3.01655 1.6902 2.98655 1.9552 2.98655 2.2252V3.6102H1.56155C1.30155 3.6052 1.02655 3.6302 1.02155 3.9602C1.01655 4.3252 1.31155 4.3302 1.57655 4.3302H2.91155C2.75655 10.0652 2.60655 15.7302 2.45155 21.4452C2.25155 21.4452 2.11155 21.4252 1.97155 21.4452C1.65155 21.5052 1.12155 21.2402 1.10655 21.7952C1.09155 22.3602 1.63155 22.1152 1.95155 22.1652C2.10155 22.1852 2.25655 22.1652 2.41155 22.1652C2.41155 22.5352 2.37655 22.8452 2.42655 23.1452C2.45655 23.2952 2.64655 23.4202 2.76655 23.5602C2.87655 23.4202 3.06155 23.2952 3.09155 23.1452C3.14155 22.8352 3.10655 22.5152 3.10655 22.1952H23.4615C23.4615 22.5202 23.4265 22.8252 23.4765 23.1202C23.4965 23.2752 23.6765 23.4102 23.7865 23.5552C23.9065 23.4052 24.1065 23.2752 24.1415 23.1102C24.2015 22.8202 24.1565 22.5102 24.1565 22.1602C24.5115 22.1602 24.8465 22.1952 25.1615 22.1452C25.3315 22.1152 25.5765 21.9452 25.6065 21.7952C25.6565 21.5352 25.4265 21.4402 25.1765 21.4402V21.4452ZM3.15655 21.4002C3.31155 15.7202 3.46155 10.0552 3.61655 4.3502H22.9715C23.1215 10.0402 23.2615 15.7052 23.4065 21.4002H3.15655ZM20.0415 6.8552H6.59155C6.06655 6.8552 5.99155 6.9352 5.99155 7.4602C5.98655 10.8902 5.98655 14.3202 5.99155 17.7502C5.99155 18.3052 6.05655 18.3702 6.61155 18.3702H20.0165C20.5565 18.3702 20.6465 18.2902 20.6465 17.7402V7.4552C20.6465 6.9302 20.5665 6.8552 20.0415 6.8552ZM6.71155 7.5952H11.3165V11.9502H6.71155V7.5952ZM10.1765 12.7202V15.1052H6.71655V12.7202H10.1765ZM16.3365 17.6452H6.71655V15.8502H10.2715C10.8515 15.8502 10.9065 15.7902 10.9215 15.2002C10.9265 15.0902 10.9415 14.9802 10.9515 14.8352H16.3365V17.6402V17.6452ZM19.9065 11.0402H14.7065C14.5815 11.0402 14.4315 11.0102 14.3265 11.0602C14.2015 11.1202 14.0215 11.2652 14.0315 11.3652C14.0465 11.5002 14.1865 11.6552 14.3115 11.7352C14.4065 11.7952 14.5615 11.7552 14.6965 11.7552H19.8815V17.6452H17.0815V13.8752C17.0815 13.6252 17.0315 13.3552 16.7265 13.4102C16.5865 13.4402 16.4765 13.6852 16.3615 13.8452C16.3265 13.8952 16.3415 13.9802 16.3315 14.0752H10.9615V12.6952H11.4565C11.9515 12.6902 12.0615 12.5902 12.0615 12.0802V7.6002H19.8965V11.0352L19.9065 11.0402Z" fill="#B27E02"/>
<path d="M20.044 6.85547H6.59398C6.06898 6.85547 5.99398 6.93547 5.99398 7.46047C5.98898 10.8905 5.98898 14.3205 5.99398 17.7505C5.99398 18.3055 6.05898 18.3705 6.61398 18.3705H20.019C20.559 18.3705 20.649 18.2905 20.649 17.7405V7.45547C20.649 6.93047 20.569 6.85547 20.044 6.85547ZM6.71398 7.59547H11.319V11.9505H6.71398V7.59547ZM10.179 12.7205V15.1055H6.71898V12.7205H10.179ZM16.339 17.6455H6.71898V15.8505H10.274C10.854 15.8505 10.909 15.7905 10.924 15.2005C10.929 15.0905 10.944 14.9805 10.954 14.8355H16.339V17.6405V17.6455ZM19.909 11.0405H14.709C14.584 11.0405 14.434 11.0105 14.329 11.0605C14.204 11.1205 14.024 11.2655 14.034 11.3655C14.049 11.5005 14.189 11.6555 14.314 11.7355C14.409 11.7955 14.564 11.7555 14.699 11.7555H19.884V17.6455H17.084V13.8755C17.084 13.6255 17.034 13.3555 16.729 13.4105C16.589 13.4405 16.479 13.6855 16.364 13.8455C16.329 13.8955 16.344 13.9805 16.334 14.0755H10.964V12.6955H11.459C11.954 12.6905 12.064 12.5905 12.064 12.0805V7.60047H19.899V11.0355L19.909 11.0405Z" fill="#B27E02"/>
</g>
<defs>
<clipPath id="clip0_1_3269">
<rect width="25" height="25" fill="white" transform="translate(0.818359 0.130371)"/>
</clipPath>
</defs>
</svg>
