<svg width="36" height="36" viewBox="0 0 36 36" fill="none" xmlns="http://www.w3.org/2000/svg">
<path opacity="0.979" fill-rule="evenodd" clip-rule="evenodd" d="M9.0785 6.2876C14.4333 6.2876 19.7882 6.2876 25.143 6.2876C25.143 7.26741 25.143 8.24726 25.143 9.22705C23.4561 9.20429 21.77 9.22705 20.0844 9.29541C20.7325 10.1227 21.1427 11.057 21.3148 12.0981C22.5909 12.0981 23.8669 12.0981 25.143 12.0981C25.143 13.1008 25.143 14.1033 25.143 15.106C23.8669 15.106 22.5909 15.106 21.3148 15.106C20.4909 18.4475 18.3718 20.3729 14.9574 20.8823C14.2055 20.9051 13.4535 20.9279 12.7015 20.9507C15.5954 23.8445 18.4893 26.7385 21.3832 29.6323C19.9704 29.6779 18.5577 29.6779 17.1449 29.6323C14.4675 26.9549 11.7901 24.2775 9.11268 21.6001C9.0785 20.3926 9.06708 19.185 9.0785 17.977C10.7876 17.9885 12.4966 17.977 14.2055 17.9429C16.1109 17.8146 17.4553 16.8804 18.2387 15.1401C15.1854 15.106 12.132 15.0945 9.0785 15.106C9.0785 14.1033 9.0785 13.1008 9.0785 12.0981C12.132 12.1096 15.1854 12.0981 18.2387 12.064C17.4548 10.3231 16.1104 9.38879 14.2055 9.26123C12.4966 9.22705 10.7876 9.21563 9.0785 9.22705C9.0785 8.24726 9.0785 7.26741 9.0785 6.2876Z" fill="#A77B01"/>
</svg>
