<svg width="26" height="26" viewBox="0 0 26 26" fill="none" xmlns="http://www.w3.org/2000/svg">
<g clip-path="url(#clip0_1_3274)">
<path d="M1.02148 16.3356C1.02148 13.7506 1.02148 11.1656 1.02148 8.58057C1.02148 7.80057 1.36648 7.45557 2.15148 7.45557C7.23148 7.45557 12.3115 7.45557 17.3965 7.45557C18.1765 7.45557 18.5265 7.80557 18.5265 8.58057C18.5265 13.7506 18.5265 18.9156 18.5265 24.0856C18.5265 24.8456 18.1715 25.1956 17.4115 25.1956C12.3215 25.1956 7.23148 25.1956 2.13648 25.1956C1.37648 25.1956 1.02148 24.8406 1.02148 24.0856C1.02148 21.5006 1.02148 18.9156 1.02148 16.3306V16.3356ZM17.5715 24.2456V8.42057H1.98648V24.2456H17.5765H17.5715Z" fill="#B27E02"/>
<path d="M16.9543 4.07072H2.44935C2.75435 4.47572 3.03435 4.85072 3.30935 5.22072C3.36935 5.30072 3.43435 5.37572 3.47935 5.46072C3.60435 5.69072 3.56435 5.90072 3.36435 6.06572C3.17435 6.22572 2.89435 6.21572 2.73435 6.00572C2.17935 5.28572 1.63435 4.55572 1.09935 3.82072C0.969349 3.64572 1.01435 3.44572 1.14435 3.27572C1.65935 2.58572 2.17435 1.89572 2.69435 1.21072C2.87935 0.970722 3.14935 0.935722 3.36435 1.10072C3.57935 1.26572 3.61935 1.53072 3.43935 1.77572C3.12435 2.21072 2.79935 2.63572 2.45435 3.09572H16.9494C16.8744 2.99572 16.8193 2.91572 16.7543 2.83572C16.4743 2.48072 16.1893 2.13572 15.9143 1.77572C15.7293 1.53572 15.7643 1.26572 15.9793 1.10072C16.1843 0.940722 16.4493 0.955722 16.6293 1.18072C17.1993 1.88072 17.7544 2.58572 18.3144 3.29072C18.4643 3.48572 18.4543 3.69572 18.3043 3.88572C17.7493 4.58572 17.1993 5.28072 16.6393 5.97572C16.4543 6.20072 16.1943 6.22572 15.9893 6.06572C15.7743 5.90572 15.7393 5.63072 15.9143 5.39072C16.0743 5.17072 16.2543 4.96072 16.4243 4.74572C16.5943 4.53072 16.7643 4.32072 16.9643 4.06572L16.9543 4.07072Z" fill="#B27E02"/>
<path d="M23.1398 23.7704C23.5748 23.4454 23.9798 23.1354 24.3898 22.8354C24.6898 22.6104 24.9598 22.6304 25.1348 22.8754C25.3048 23.1104 25.2448 23.3704 24.9598 23.5804C24.3098 24.0704 23.6598 24.5554 23.0098 25.0404C22.7098 25.2604 22.5648 25.2604 22.2698 25.0404C21.6248 24.5604 20.9848 24.0804 20.3448 23.5954C20.0398 23.3654 19.9748 23.1104 20.1498 22.8704C20.3298 22.6204 20.5998 22.6154 20.9198 22.8504C21.3198 23.1454 21.7198 23.4454 22.1498 23.7654V9.27535C21.7198 9.61535 21.3248 9.94535 20.9148 10.2504C20.7948 10.3404 20.6198 10.4404 20.4998 10.4104C20.3448 10.3704 20.1748 10.2354 20.0948 10.0904C19.9898 9.90035 20.0948 9.71035 20.2598 9.57535C20.6648 9.25035 21.0698 8.93035 21.4748 8.60535C21.7448 8.39035 22.0098 8.17535 22.2798 7.96535C22.5548 7.75035 22.7248 7.74035 22.9898 7.95035C23.6598 8.47535 24.3248 9.00535 24.9898 9.54035C25.2598 9.76035 25.3048 10.0304 25.1198 10.2504C24.9348 10.4704 24.6698 10.4804 24.3948 10.2604C23.9848 9.94035 23.5848 9.61535 23.1448 9.26535V23.7554L23.1398 23.7704Z" fill="#B27E02"/>
</g>
<defs>
<clipPath id="clip0_1_3274">
<rect width="25" height="25" fill="white" transform="translate(0.623047 0.600586)"/>
</clipPath>
</defs>
</svg>
