<svg width="36" height="36" viewBox="0 0 36 36" fill="none" xmlns="http://www.w3.org/2000/svg">
<g clip-path="url(#clip0_25_680)">
<path d="M0.363281 26.8247C0.580281 26.5237 0.748281 26.1807 1.01428 25.9357C3.18428 23.9197 5.37528 21.9317 7.55228 19.9227C7.90928 19.5937 8.28728 19.4117 8.77728 19.4467C9.07128 19.4677 9.36528 19.4467 9.68028 19.4467V15.8977C8.91028 16.1217 8.47628 15.6457 8.06328 15.1137C7.96528 14.9877 7.85328 14.8687 7.75528 14.7497C7.19528 14.0847 7.23728 13.4407 7.87428 12.8667C9.22528 11.6557 10.5763 10.4517 11.9203 9.24768C13.5933 7.74968 15.2663 6.25868 16.9323 4.76068C17.5693 4.18668 18.1363 4.17968 18.7733 4.75368C19.7183 5.59368 20.6563 6.44068 21.6013 7.28068C21.6923 7.36468 21.7833 7.44168 21.9303 7.56768C21.9373 7.38568 21.9443 7.26668 21.9513 7.15468C21.9793 6.53168 22.4413 6.06268 23.0713 6.04868C23.6383 6.03468 24.2123 6.04168 24.7793 6.04868C25.5493 6.04868 26.0183 6.50368 26.0253 7.27368C26.0393 8.42168 26.0463 9.57668 26.0253 10.7247C26.0183 11.1027 26.1233 11.3547 26.4173 11.5927C26.9283 12.0057 27.4113 12.4607 27.9013 12.9087C28.4893 13.4477 28.5313 14.1057 28.0203 14.7217C27.8313 14.9457 27.6353 15.1697 27.4393 15.3937C26.9983 15.8977 26.7463 15.9957 26.0673 15.9117V19.4467C26.4383 19.4467 26.8093 19.4537 27.1803 19.4467C27.5513 19.4327 27.8733 19.5517 28.1463 19.8037C30.4143 21.9107 32.6823 24.0177 34.9573 26.1247C35.2443 26.3907 35.3773 26.7197 35.3773 27.0977C35.3773 28.2457 35.3843 29.4007 35.3773 30.5487C35.3773 31.1997 34.9013 31.6617 34.2573 31.6827C34.1313 31.6827 34.0053 31.6827 33.8793 31.6827C23.2183 31.6827 12.5573 31.6827 1.89628 31.6967C1.19628 31.6967 0.685281 31.5077 0.384281 30.8567C0.363281 29.5197 0.363281 28.1687 0.363281 26.8247ZM20.7823 23.5347C21.9163 23.5347 22.9943 23.5347 24.0723 23.5347C24.6603 23.5347 24.8493 23.3457 24.8493 22.7577C24.8493 20.2517 24.8493 17.7457 24.8423 15.2397C24.8423 15.0717 24.7443 14.8617 24.6253 14.7567C22.9873 13.2727 21.3423 11.8027 19.6973 10.3257C19.0883 9.77968 18.4793 9.24068 17.8773 8.70168C17.8213 8.74368 17.7863 8.75768 17.7653 8.77868C15.5253 10.7807 13.2853 12.7827 11.0523 14.7987C10.9473 14.8967 10.8843 15.0927 10.8843 15.2397C10.8773 17.7457 10.8773 20.2517 10.8843 22.7577C10.8843 23.3457 11.0733 23.5347 11.6613 23.5347C12.5923 23.5347 13.5303 23.5347 14.4613 23.5347C14.6153 23.5347 14.7693 23.5347 14.9513 23.5347C14.9513 23.3597 14.9513 23.2337 14.9513 23.1147C14.9513 21.7357 14.9513 20.3567 14.9513 18.9777C14.9513 17.8437 15.6863 17.1227 16.8133 17.1157C17.5203 17.1157 18.2273 17.1157 18.9343 17.1157C20.0613 17.1157 20.7893 17.8367 20.7963 18.9777C20.8033 20.2657 20.7963 21.5537 20.7963 22.8417C20.7963 23.0587 20.7963 23.2757 20.7963 23.5347H20.7823ZM1.56028 27.0067H34.1173C34.0893 26.9577 34.0823 26.9367 34.0683 26.9227C31.8493 24.8577 29.6303 22.7997 27.4113 20.7417C27.3483 20.6857 27.2573 20.6227 27.1803 20.6227C26.8093 20.6087 26.4383 20.6227 26.0253 20.6227C26.0253 21.3367 26.0253 22.0227 26.0253 22.7017C26.0253 22.9467 26.0183 23.2057 25.9483 23.4437C25.7243 24.2487 25.0453 24.7107 24.1073 24.7107C19.9493 24.7107 15.7913 24.7107 11.6403 24.7107C11.5703 24.7107 11.5003 24.7107 11.4373 24.7107C10.4573 24.6617 9.75028 23.9687 9.71528 22.9887C9.69428 22.4777 9.71528 21.9667 9.71528 21.4487C9.71528 21.1757 9.71528 20.9097 9.71528 20.6227C9.46328 20.6227 9.25328 20.6437 9.05028 20.6227C8.69328 20.5807 8.44128 20.7137 8.17528 20.9517C6.69128 22.3307 5.19328 23.6957 3.69528 25.0677C3.00228 25.7047 2.30928 26.3417 1.56728 27.0207L1.56028 27.0067ZM1.53928 30.4997H34.1733V28.2177H1.53928V30.4997ZM26.4243 14.7777C26.6973 14.4627 26.9353 14.1757 27.1943 13.8747C24.0793 11.0747 20.9783 8.29568 17.8633 5.49568C14.7483 8.28868 11.6473 11.0677 8.53928 13.8467C8.81228 14.1757 9.05028 14.4627 9.30928 14.7777C9.47728 14.6307 9.61728 14.5117 9.75028 14.3857C12.2563 12.1457 14.7553 9.90568 17.2543 7.65868C17.7723 7.19668 17.9543 7.19668 18.4723 7.65868C20.2853 9.28268 22.1053 10.9067 23.9183 12.5377C24.7373 13.2727 25.5633 14.0077 26.4173 14.7707L26.4243 14.7777ZM19.6133 23.5207C19.6133 21.9317 19.6203 20.3917 19.6133 18.8447C19.6133 18.4807 19.3613 18.2847 18.9763 18.2847C18.2973 18.2847 17.6113 18.2847 16.9323 18.2847C16.3023 18.2847 16.1203 18.4597 16.1203 19.0967C16.1203 20.4477 16.1203 21.8057 16.1203 23.1567C16.1203 23.2757 16.1343 23.4017 16.1413 23.5277H19.6273L19.6133 23.5207ZM24.8353 10.1647V7.23168H23.1203C23.1203 7.65868 23.1203 8.05768 23.1203 8.45668C23.1203 8.54068 23.1483 8.65268 23.1973 8.70168C23.7223 9.18468 24.2543 9.65368 24.8283 10.1717L24.8353 10.1647Z" fill="#A77B01"/>
</g>
<defs>
<clipPath id="clip0_25_680">
<rect width="35" height="35" fill="white" transform="translate(0.363281 0.51123)"/>
</clipPath>
</defs>
</svg>
